<svg width="449" height="56" viewBox="0 0 449 56" fill="none" xmlns="http://www.w3.org/2000/svg">
<path d="M7.04 7.04V24.64H31.44V31.04H7.04V49.28H33.2V56H0V0.319997H33.2V7.04H7.04ZM93.9719 0.319997L73.5719 56H64.7719L44.3719 0.319997H51.8119L69.4119 48.24L86.9319 0.319997H93.9719ZM114.228 7.04V24.64H138.628V31.04H114.228V49.28H140.388V56H107.188V0.319997H140.388V7.04H114.228ZM190.279 56L178.999 34.16H178.199H165.399V56H158.359V0.319997H177.239C183.906 0.319997 188.866 1.73333 192.119 4.56C195.373 7.33333 196.999 11.4133 196.999 16.8C196.999 20.8 196.119 24.1867 194.359 26.96C192.599 29.7333 190.013 31.7067 186.599 32.88L198.759 56H190.279ZM177.319 27.52C181.479 27.52 184.519 26.72 186.439 25.12C188.413 23.4667 189.399 20.6933 189.399 16.8C189.399 13.2267 188.413 10.72 186.439 9.28C184.519 7.78666 181.453 7.04 177.239 7.04H165.399V27.52H177.319ZM283.612 0.319997L266.973 56H258.173L245.213 12.24L232.253 56H223.453L206.813 0.319997H214.253L228.013 46.48L241.693 0.319997H249.133L262.813 46.48L276.573 0.319997H283.612ZM304.618 7.04V24.64H329.018V31.04H304.618V49.28H330.778V56H297.578V0.319997H330.778V7.04H304.618ZM381.55 41.28H354.75L349.07 56H342.03L363.47 0.319997H373.23L394.67 56H387.23L381.55 41.28ZM379.23 35.28L368.19 6.48L357.07 35.28H379.23ZM439.889 56L428.609 34.16H427.809H415.009V56H407.969V0.319997H426.849C433.515 0.319997 438.475 1.73333 441.729 4.56C444.982 7.33333 446.609 11.4133 446.609 16.8C446.609 20.8 445.729 24.1867 443.969 26.96C442.209 29.7333 439.622 31.7067 436.209 32.88L448.369 56H439.889ZM426.929 27.52C431.089 27.52 434.129 26.72 436.049 25.12C438.022 23.4667 439.009 20.6933 439.009 16.8C439.009 13.2267 438.022 10.72 436.049 9.28C434.129 7.78666 431.062 7.04 426.849 7.04H415.009V27.52H426.929Z" fill="#4E3E31"/>
</svg>
