<svg width="41" height="40" viewBox="0 0 41 40" fill="none" xmlns="http://www.w3.org/2000/svg">
<mask id="mask0_1524_2132" style="mask-type:alpha" maskUnits="userSpaceOnUse" x="0" y="0" width="41" height="40">
<rect x="0.5" width="40" height="40" fill="#D9D9D9"/>
</mask>
<g mask="url(#mask0_1524_2132)">
<path d="M20.5 21.6667C22.1111 21.6667 23.4861 21.0972 24.625 19.9583C25.7639 18.8194 26.3333 17.4444 26.3333 15.8333C26.3333 14.2222 25.7639 12.8472 24.625 11.7083C23.4861 10.5694 22.1111 10 20.5 10C18.8889 10 17.5139 10.5694 16.375 11.7083C15.2361 12.8472 14.6667 14.2222 14.6667 15.8333C14.6667 17.4444 15.2361 18.8194 16.375 19.9583C17.5139 21.0972 18.8889 21.6667 20.5 21.6667ZM8.83333 35C7.91667 35 7.13194 34.6736 6.47917 34.0208C5.82639 33.3681 5.5 32.5833 5.5 31.6667V8.33333C5.5 7.41667 5.82639 6.63194 6.47917 5.97917C7.13194 5.32639 7.91667 5 8.83333 5H32.1667C33.0833 5 33.8681 5.32639 34.5208 5.97917C35.1736 6.63194 35.5 7.41667 35.5 8.33333V31.6667C35.5 32.5833 35.1736 33.3681 34.5208 34.0208C33.8681 34.6736 33.0833 35 32.1667 35H8.83333ZM8.83333 31.6667H32.1667V29.75C30.6667 28.2778 28.9236 27.1181 26.9375 26.2708C24.9514 25.4236 22.8056 25 20.5 25C18.1944 25 16.0486 25.4236 14.0625 26.2708C12.0764 27.1181 10.3333 28.2778 8.83333 29.75V31.6667Z" fill="#F5F5DC"/>
</g>
</svg>
