<svg width="10" height="11" viewBox="0 0 10 11" fill="none" xmlns="http://www.w3.org/2000/svg">
<path d="M9.3125 4.9375H5.5625V1.1875C5.5625 1.08391 5.47859 1 5.375 1H4.625C4.52141 1 4.4375 1.08391 4.4375 1.1875V4.9375H0.6875C0.583906 4.9375 0.5 5.02141 0.5 5.125V5.875C0.5 5.97859 0.583906 6.0625 0.6875 6.0625H4.4375V9.8125C4.4375 9.91609 4.52141 10 4.625 10H5.375C5.47859 10 5.5625 9.91609 5.5625 9.8125V6.0625H9.3125C9.41609 6.0625 9.5 5.97859 9.5 5.875V5.125C9.5 5.02141 9.41609 4.9375 9.3125 4.9375Z" fill="#F5F5DC" stroke="#F5F5DC" stroke-width="0.0234375"/>
</svg>
