<svg width="60" height="60" viewBox="0 0 60 60" fill="none" xmlns="http://www.w3.org/2000/svg">
<mask id="mask0_784_1613" style="mask-type:alpha" maskUnits="userSpaceOnUse" x="0" y="0" width="60" height="60">
<rect width="60" height="60" fill="#D9D9D9"/>
</mask>
<g mask="url(#mask0_784_1613)">
<path d="M14.9998 27.375L12.4998 28.75C11.9165 29.0833 11.2915 29.1667 10.6248 29C9.95817 28.8333 9.45817 28.4583 9.12484 27.875L4.12484 19.125C3.7915 18.5417 3.70817 17.9167 3.87484 17.25C4.0415 16.5833 4.4165 16.0833 4.99984 15.75L19.3748 7.5H23.7498C24.1248 7.5 24.4269 7.61458 24.6561 7.84375C24.8853 8.07292 24.9998 8.375 24.9998 8.75V10C24.9998 11.375 25.4894 12.5521 26.4686 13.5313C27.4478 14.5104 28.6248 15 29.9998 15C31.3748 15 32.5519 14.5104 33.5311 13.5313C34.5103 12.5521 34.9998 11.375 34.9998 10V8.75C34.9998 8.375 35.1144 8.07292 35.3436 7.84375C35.5728 7.61458 35.8748 7.5 36.2498 7.5H40.6248L54.9998 15.75C55.5832 16.0833 55.9582 16.5833 56.1248 17.25C56.2915 17.9167 56.2082 18.5417 55.8748 19.125L50.8748 27.875C50.5415 28.4583 50.0519 28.8229 49.4061 28.9688C48.7603 29.1146 48.1248 29.0208 47.4998 28.6875L44.9998 27.4375V50C44.9998 50.7083 44.7603 51.3021 44.2811 51.7812C43.8019 52.2604 43.2082 52.5 42.4998 52.5H17.4998C16.7915 52.5 16.1978 52.2604 15.7186 51.7812C15.2394 51.3021 14.9998 50.7083 14.9998 50V27.375ZM19.9998 19V47.5H39.9998V19L47.7498 23.25L50.3748 18.875L39.6248 12.625C38.9998 14.75 37.8228 16.5104 36.0936 17.9062C34.3644 19.3021 32.3332 20 29.9998 20C27.6665 20 25.6353 19.3021 23.9061 17.9062C22.1769 16.5104 20.9998 14.75 20.3748 12.625L9.62484 18.875L12.2498 23.25L19.9998 19Z" fill="#F5F5DC"/>
</g>
</svg>
