<svg width="46" height="46" viewBox="0 0 46 46" fill="none" xmlns="http://www.w3.org/2000/svg">
<mask id="mask0_1540_324" style="mask-type:alpha" maskUnits="userSpaceOnUse" x="0" y="0" width="46" height="46">
<rect x="0.5" y="0.5" width="45" height="45" fill="#D9D9D9"/>
</mask>
<g mask="url(#mask0_1540_324)">
<path d="M23 28.625L30.5 21.125H15.5L23 28.625ZM23 41.75C20.4062 41.75 17.9688 41.2578 15.6875 40.2734C13.4062 39.2891 11.4219 37.9531 9.73438 36.2656C8.04687 34.5781 6.71094 32.5938 5.72656 30.3125C4.74219 28.0313 4.25 25.5938 4.25 23C4.25 20.4062 4.74219 17.9688 5.72656 15.6875C6.71094 13.4062 8.04687 11.4219 9.73438 9.73438C11.4219 8.04687 13.4062 6.71094 15.6875 5.72656C17.9688 4.74219 20.4062 4.25 23 4.25C25.5938 4.25 28.0313 4.74219 30.3125 5.72656C32.5938 6.71094 34.5781 8.04687 36.2656 9.73438C37.9531 11.4219 39.2891 13.4062 40.2734 15.6875C41.2578 17.9688 41.75 20.4062 41.75 23C41.75 25.5938 41.2578 28.0313 40.2734 30.3125C39.2891 32.5938 37.9531 34.5781 36.2656 36.2656C34.5781 37.9531 32.5938 39.2891 30.3125 40.2734C28.0313 41.2578 25.5938 41.75 23 41.75ZM23 38C27.1875 38 30.7344 36.5469 33.6406 33.6406C36.5469 30.7344 38 27.1875 38 23C38 18.8125 36.5469 15.2656 33.6406 12.3594C30.7344 9.45313 27.1875 8 23 8C18.8125 8 15.2656 9.45313 12.3594 12.3594C9.45313 15.2656 8 18.8125 8 23C8 27.1875 9.45313 30.7344 12.3594 33.6406C15.2656 36.5469 18.8125 38 23 38Z" fill="#F5F5DC"/>
</g>
</svg>
