<svg width="25" height="25" viewBox="0 0 25 25" fill="none" xmlns="http://www.w3.org/2000/svg">
<mask id="mask0_1549_2354" style="mask-type:alpha" maskUnits="userSpaceOnUse" x="0" y="0" width="25" height="25">
<rect x="0.222168" y="0.639587" width="24" height="24" fill="#D9D9D9"/>
</mask>
<g mask="url(#mask0_1549_2354)">
<path d="M6.72217 20.6396C5.2055 20.6396 3.90967 20.1146 2.83467 19.0646C1.75967 18.0146 1.22217 16.7313 1.22217 15.2146C1.22217 13.9146 1.61383 12.7563 2.39717 11.7396C3.1805 10.7229 4.2055 10.0729 5.47217 9.78959C5.88883 8.25625 6.72217 7.01459 7.97217 6.06459C9.22217 5.11459 10.6388 4.63959 12.2222 4.63959C14.1722 4.63959 15.8263 5.31875 17.1847 6.67709C18.543 8.03542 19.2222 9.68959 19.2222 11.6396C20.3722 11.7729 21.3263 12.2688 22.0847 13.1271C22.843 13.9854 23.2222 14.9896 23.2222 16.1396C23.2222 17.3896 22.7847 18.4521 21.9097 19.3271C21.0347 20.2021 19.9722 20.6396 18.7222 20.6396H13.2222C12.6722 20.6396 12.2013 20.4438 11.8097 20.0521C11.418 19.6604 11.2222 19.1896 11.2222 18.6396V13.4896L9.62217 15.0396L8.22217 13.6396L12.2222 9.63959L16.2222 13.6396L14.8222 15.0396L13.2222 13.4896V18.6396H18.7222C19.4222 18.6396 20.0138 18.3979 20.4972 17.9146C20.9805 17.4313 21.2222 16.8396 21.2222 16.1396C21.2222 15.4396 20.9805 14.8479 20.4972 14.3646C20.0138 13.8813 19.4222 13.6396 18.7222 13.6396H17.2222V11.6396C17.2222 10.2563 16.7347 9.07709 15.7597 8.10209C14.7847 7.12709 13.6055 6.63959 12.2222 6.63959C10.8388 6.63959 9.65967 7.12709 8.68467 8.10209C7.70967 9.07709 7.22217 10.2563 7.22217 11.6396H6.72217C5.7555 11.6396 4.9305 11.9813 4.24717 12.6646C3.56383 13.3479 3.22217 14.1729 3.22217 15.1396C3.22217 16.1063 3.56383 16.9313 4.24717 17.6146C4.9305 18.2979 5.7555 18.6396 6.72217 18.6396H9.22217V20.6396H6.72217Z" fill="#1C1B1F"/>
</g>
</svg>
