<svg width="25" height="25" viewBox="0 0 25 25" fill="none" xmlns="http://www.w3.org/2000/svg">
<mask id="mask0_1576_708" style="mask-type:alpha" maskUnits="userSpaceOnUse" x="0" y="0" width="25" height="25">
<rect x="0.6875" y="0.781403" width="24" height="24" fill="#D9D9D9"/>
</mask>
<g mask="url(#mask0_1576_708)">
<path d="M12.6875 16.7814L7.6875 11.7814L9.0875 10.3314L11.6875 12.9314V4.7814H13.6875V12.9314L16.2875 10.3314L17.6875 11.7814L12.6875 16.7814ZM6.6875 20.7814C6.1375 20.7814 5.66667 20.5856 5.275 20.1939C4.88333 19.8022 4.6875 19.3314 4.6875 18.7814V15.7814H6.6875V18.7814H18.6875V15.7814H20.6875V18.7814C20.6875 19.3314 20.4917 19.8022 20.1 20.1939C19.7083 20.5856 19.2375 20.7814 18.6875 20.7814H6.6875Z" fill="#1C1B1F"/>
</g>
</svg>
