<svg width="25" height="25" viewBox="0 0 25 25" fill="none" xmlns="http://www.w3.org/2000/svg">
<mask id="mask0_1896_1703" style="mask-type:alpha" maskUnits="userSpaceOnUse" x="0" y="0" width="25" height="25">
<rect x="0.698227" y="0.747559" width="24" height="24" fill="#D9D9D9"/>
</mask>
<g mask="url(#mask0_1896_1703)">
<path d="M8.69823 20.7476H16.6982V17.7476C16.6982 16.6476 16.3066 15.7059 15.5232 14.9226C14.7399 14.1392 13.7982 13.7476 12.6982 13.7476C11.5982 13.7476 10.6566 14.1392 9.87323 14.9226C9.08989 15.7059 8.69823 16.6476 8.69823 17.7476V20.7476ZM12.6982 11.7476C13.7982 11.7476 14.7399 11.3559 15.5232 10.5726C16.3066 9.78923 16.6982 8.84756 16.6982 7.74756V4.74756H8.69823V7.74756C8.69823 8.84756 9.08989 9.78923 9.87323 10.5726C10.6566 11.3559 11.5982 11.7476 12.6982 11.7476ZM4.69823 22.7476V20.7476H6.69823V17.7476C6.69823 16.7309 6.93573 15.7767 7.41073 14.8851C7.88573 13.9934 8.54823 13.2809 9.39823 12.7476C8.54823 12.2142 7.88573 11.5017 7.41073 10.6101C6.93573 9.71839 6.69823 8.76423 6.69823 7.74756V4.74756H4.69823V2.74756H20.6982V4.74756H18.6982V7.74756C18.6982 8.76423 18.4607 9.71839 17.9857 10.6101C17.5107 11.5017 16.8482 12.2142 15.9982 12.7476C16.8482 13.2809 17.5107 13.9934 17.9857 14.8851C18.4607 15.7767 18.6982 16.7309 18.6982 17.7476V20.7476H20.6982V22.7476H4.69823Z" fill="#1C1B1F"/>
</g>
</svg>
