<svg width="25" height="25" viewBox="0 0 25 25" fill="none" xmlns="http://www.w3.org/2000/svg">
<path d="M8.12492 2.08331H16.8749C20.2083 2.08331 22.9166 4.79165 22.9166 8.12498V16.875C22.9166 18.4773 22.2801 20.0141 21.147 21.1471C20.014 22.2801 18.4773 22.9166 16.8749 22.9166H8.12492C4.79159 22.9166 2.08325 20.2083 2.08325 16.875V8.12498C2.08325 6.52263 2.71978 4.98591 3.85282 3.85288C4.98585 2.71984 6.52257 2.08331 8.12492 2.08331ZM7.91658 4.16665C6.92202 4.16665 5.9682 4.56173 5.26493 5.265C4.56167 5.96826 4.16659 6.92208 4.16659 7.91665V17.0833C4.16659 19.1562 5.84367 20.8333 7.91658 20.8333H17.0833C18.0778 20.8333 19.0316 20.4382 19.7349 19.735C20.4382 19.0317 20.8333 18.0779 20.8333 17.0833V7.91665C20.8333 5.84373 19.1562 4.16665 17.0833 4.16665H7.91658ZM17.9687 5.72915C18.314 5.72915 18.6452 5.86633 18.8894 6.11052C19.1336 6.35471 19.2708 6.6859 19.2708 7.03123C19.2708 7.37656 19.1336 7.70775 18.8894 7.95194C18.6452 8.19613 18.314 8.33331 17.9687 8.33331C17.6233 8.33331 17.2921 8.19613 17.048 7.95194C16.8038 7.70775 16.6666 7.37656 16.6666 7.03123C16.6666 6.6859 16.8038 6.35471 17.048 6.11052C17.2921 5.86633 17.6233 5.72915 17.9687 5.72915ZM12.4999 7.29165C13.8813 7.29165 15.206 7.84038 16.1828 8.81713C17.1595 9.79388 17.7083 11.1186 17.7083 12.5C17.7083 13.8813 17.1595 15.2061 16.1828 16.1828C15.206 17.1596 13.8813 17.7083 12.4999 17.7083C11.1186 17.7083 9.79382 17.1596 8.81707 16.1828C7.84032 15.2061 7.29158 13.8813 7.29158 12.5C7.29158 11.1186 7.84032 9.79388 8.81707 8.81713C9.79382 7.84038 11.1186 7.29165 12.4999 7.29165ZM12.4999 9.37498C11.6711 9.37498 10.8763 9.70422 10.2902 10.2903C9.70416 10.8763 9.37492 11.6712 9.37492 12.5C9.37492 13.3288 9.70416 14.1236 10.2902 14.7097C10.8763 15.2957 11.6711 15.625 12.4999 15.625C13.3287 15.625 14.1236 15.2957 14.7096 14.7097C15.2957 14.1236 15.6249 13.3288 15.6249 12.5C15.6249 11.6712 15.2957 10.8763 14.7096 10.2903C14.1236 9.70422 13.3287 9.37498 12.4999 9.37498Z" fill="#EAE6D9"/>
</svg>
