<svg width="80" height="80" viewBox="0 0 80 80" fill="none" xmlns="http://www.w3.org/2000/svg">
<mask id="mask0_1117_4401" style="mask-type:alpha" maskUnits="userSpaceOnUse" x="0" y="0" width="80" height="80">
<rect width="80" height="80" fill="#D9D9D9"/>
</mask>
<g mask="url(#mask0_1117_4401)">
<path d="M19.9999 36.5L16.6666 38.3333C15.8888 38.7778 15.0555 38.8889 14.1666 38.6667C13.2777 38.4444 12.6111 37.9444 12.1666 37.1667L5.49995 25.5C5.0555 24.7222 4.94439 23.8889 5.16661 23C5.38884 22.1111 5.88884 21.4444 6.66662 21L25.8333 10H31.6666C32.1666 10 32.5694 10.1528 32.875 10.4583C33.1805 10.7639 33.3333 11.1667 33.3333 11.6667V13.3333C33.3333 15.1667 33.9861 16.7361 35.2916 18.0417C36.5972 19.3472 38.1666 20 40 20C41.8333 20 43.4027 19.3472 44.7083 18.0417C46.0138 16.7361 46.6666 15.1667 46.6666 13.3333V11.6667C46.6666 11.1667 46.8194 10.7639 47.125 10.4583C47.4305 10.1528 47.8333 10 48.3333 10H54.1666L73.3333 21C74.1111 21.4444 74.6111 22.1111 74.8333 23C75.0555 23.8889 74.9444 24.7222 74.5 25.5L67.8333 37.1667C67.3888 37.9444 66.7361 38.4306 65.8749 38.625C65.0138 38.8194 64.1666 38.6944 63.3333 38.25L60 36.5833V66.6667C60 67.6111 59.6805 68.4028 59.0416 69.0417C58.4027 69.6806 57.6111 70 56.6666 70H23.3333C22.3888 70 21.5972 69.6806 20.9583 69.0417C20.3194 68.4028 19.9999 67.6111 19.9999 66.6667V36.5ZM26.6666 25.3333V63.3333H53.3333V25.3333L63.6666 31L67.1666 25.1667L52.8333 16.8333C52 19.6667 50.4305 22.0139 48.1249 23.875C45.8194 25.7361 43.1111 26.6667 40 26.6667C36.8888 26.6667 34.1805 25.7361 31.875 23.875C29.5694 22.0139 28 19.6667 27.1666 16.8333L12.8333 25.1667L16.3333 31L26.6666 25.3333Z" fill="#4E3E31"/>
</g>
</svg>
