<svg width="50" height="50" viewBox="0 0 50 50" fill="none" xmlns="http://www.w3.org/2000/svg">
<mask id="mask0_235_160" style="mask-type:alpha" maskUnits="userSpaceOnUse" x="0" y="0" width="50" height="50">
<rect width="50" height="50" fill="#D9D9D9"/>
</mask>
<g mask="url(#mask0_235_160)">
<path d="M4.16663 41.6666V35.8333C4.16663 34.6875 4.46176 33.6111 5.05204 32.6041C5.64232 31.5972 6.45829 30.8333 7.49996 30.3125C9.27079 29.4097 11.2673 28.6458 13.4895 28.0208C15.7118 27.3958 18.1597 27.0833 20.8333 27.0833C21.875 27.0833 22.8906 27.1354 23.8802 27.2396C24.8698 27.3437 25.8333 27.5 26.7708 27.7083L23.125 31.3541C22.743 31.2847 22.3698 31.25 22.0052 31.25H20.8333C18.368 31.25 16.1545 31.5451 14.1927 32.1354C12.2309 32.7257 10.625 33.368 9.37496 34.0625C9.06246 34.2361 8.81072 34.4791 8.61975 34.7916C8.42878 35.1041 8.33329 35.4514 8.33329 35.8333V37.5H21.3541L25.5208 41.6666H4.16663ZM32.3958 42.5L25.2083 35.3125L28.125 32.3958L32.3958 36.6666L42.9166 26.1458L45.8333 29.0625L32.3958 42.5ZM20.8333 25C18.5416 25 16.5798 24.184 14.9479 22.5521C13.3159 20.9201 12.5 18.9583 12.5 16.6666C12.5 14.375 13.3159 12.4132 14.9479 10.7812C16.5798 9.14929 18.5416 8.33331 20.8333 8.33331C23.125 8.33331 25.0868 9.14929 26.7187 10.7812C28.3507 12.4132 29.1666 14.375 29.1666 16.6666C29.1666 18.9583 28.3507 20.9201 26.7187 22.5521C25.0868 24.184 23.125 25 20.8333 25ZM20.8333 20.8333C21.9791 20.8333 22.96 20.4253 23.776 19.6094C24.592 18.7934 25 17.8125 25 16.6666C25 15.5208 24.592 14.5399 23.776 13.7239C22.96 12.908 21.9791 12.5 20.8333 12.5C19.6875 12.5 18.7066 12.908 17.8906 13.7239C17.0746 14.5399 16.6666 15.5208 16.6666 16.6666C16.6666 17.8125 17.0746 18.7934 17.8906 19.6094C18.7066 20.4253 19.6875 20.8333 20.8333 20.8333Z" fill="#4E3E31"/>
</g>
</svg>
