<svg width="41" height="40" viewBox="0 0 41 40" fill="none" xmlns="http://www.w3.org/2000/svg">
<mask id="mask0_1524_2116" style="mask-type:alpha" maskUnits="userSpaceOnUse" x="0" y="0" width="41" height="40">
<rect x="0.5" width="40" height="40" fill="#D9D9D9"/>
</mask>
<g mask="url(#mask0_1524_2116)">
<path d="M20.5 29.1667C22.5834 29.1667 24.3542 28.4375 25.8125 26.9792C27.2709 25.5208 28 23.75 28 21.6667C28 19.5833 27.2709 17.8125 25.8125 16.3542C24.3542 14.8958 22.5834 14.1667 20.5 14.1667C18.4167 14.1667 16.6459 14.8958 15.1875 16.3542C13.7292 17.8125 13 19.5833 13 21.6667C13 23.75 13.7292 25.5208 15.1875 26.9792C16.6459 28.4375 18.4167 29.1667 20.5 29.1667ZM20.5 25.8333C19.3334 25.8333 18.3473 25.4306 17.5417 24.625C16.7362 23.8194 16.3334 22.8333 16.3334 21.6667C16.3334 20.5 16.7362 19.5139 17.5417 18.7083C18.3473 17.9028 19.3334 17.5 20.5 17.5C21.6667 17.5 22.6528 17.9028 23.4584 18.7083C24.2639 19.5139 24.6667 20.5 24.6667 21.6667C24.6667 22.8333 24.2639 23.8194 23.4584 24.625C22.6528 25.4306 21.6667 25.8333 20.5 25.8333ZM7.16671 35C6.25004 35 5.46532 34.6736 4.81254 34.0208C4.15976 33.3681 3.83337 32.5833 3.83337 31.6667V11.6667C3.83337 10.75 4.15976 9.96528 4.81254 9.3125C5.46532 8.65972 6.25004 8.33333 7.16671 8.33333H12.4167L15.5 5H25.5L28.5834 8.33333H33.8334C34.75 8.33333 35.5348 8.65972 36.1875 9.3125C36.8403 9.96528 37.1667 10.75 37.1667 11.6667V31.6667C37.1667 32.5833 36.8403 33.3681 36.1875 34.0208C35.5348 34.6736 34.75 35 33.8334 35H7.16671Z" fill="#F5F5DC"/>
</g>
</svg>
