<svg width="50" height="50" viewBox="0 0 50 50" fill="none" xmlns="http://www.w3.org/2000/svg">
<mask id="mask0_235_162" style="mask-type:alpha" maskUnits="userSpaceOnUse" x="0" y="0" width="50" height="50">
<rect width="50" height="50" fill="#D9D9D9"/>
</mask>
<g mask="url(#mask0_235_162)">
<path d="M12.5 45.8334C11.3542 45.8334 10.3733 45.4254 9.55733 44.6094C8.74136 43.7934 8.33337 42.8125 8.33337 41.6667V16.6667C8.33337 15.5209 8.74136 14.54 9.55733 13.724C10.3733 12.908 11.3542 12.5 12.5 12.5H16.6667C16.6667 10.2084 17.4827 8.24655 19.1146 6.6146C20.7466 4.98266 22.7084 4.16669 25 4.16669C27.2917 4.16669 29.2535 4.98266 30.8855 6.6146C32.5174 8.24655 33.3334 10.2084 33.3334 12.5H37.5C38.6459 12.5 39.6268 12.908 40.4427 13.724C41.2587 14.54 41.6667 15.5209 41.6667 16.6667V41.6667C41.6667 42.8125 41.2587 43.7934 40.4427 44.6094C39.6268 45.4254 38.6459 45.8334 37.5 45.8334H12.5ZM12.5 41.6667H37.5V16.6667H33.3334V20.8334C33.3334 21.4236 33.1337 21.9184 32.7344 22.3177C32.3351 22.717 31.8403 22.9167 31.25 22.9167C30.6598 22.9167 30.165 22.717 29.7657 22.3177C29.3664 21.9184 29.1667 21.4236 29.1667 20.8334V16.6667H20.8334V20.8334C20.8334 21.4236 20.6337 21.9184 20.2344 22.3177C19.8351 22.717 19.3403 22.9167 18.75 22.9167C18.1598 22.9167 17.665 22.717 17.2657 22.3177C16.8664 21.9184 16.6667 21.4236 16.6667 20.8334V16.6667H12.5V41.6667ZM20.8334 12.5H29.1667C29.1667 11.3542 28.7587 10.3733 27.9427 9.55731C27.1268 8.74134 26.1459 8.33335 25 8.33335C23.8542 8.33335 22.8733 8.74134 22.0573 9.55731C21.2414 10.3733 20.8334 11.3542 20.8334 12.5Z" fill="#4E3E31"/>
</g>
</svg>
