<svg width="36" height="35" viewBox="0 0 36 35" fill="none" xmlns="http://www.w3.org/2000/svg">
<mask id="mask0_1430_352" style="mask-type:alpha" maskUnits="userSpaceOnUse" x="0" y="0" width="36" height="35">
<rect x="0.5" width="35" height="35" fill="#D9D9D9"/>
</mask>
<g mask="url(#mask0_1430_352)">
<path d="M6.33341 26.25C5.53133 26.25 4.8447 25.9644 4.27352 25.3932C3.70234 24.822 3.41675 24.1354 3.41675 23.3333V11.6667C3.41675 10.8646 3.70234 10.178 4.27352 9.60677C4.8447 9.03559 5.53133 8.75 6.33341 8.75H10.7084V17.5H13.6251V8.75H16.5417V17.5H19.4584V8.75H22.3751V17.5H25.2917V8.75H29.6667C30.4688 8.75 31.1555 9.03559 31.7266 9.60677C32.2978 10.178 32.5834 10.8646 32.5834 11.6667V23.3333C32.5834 24.1354 32.2978 24.822 31.7266 25.3932C31.1555 25.9644 30.4688 26.25 29.6667 26.25H6.33341Z" fill="#1C1B1F"/>
</g>
</svg>
