<svg width="21" height="20" viewBox="0 0 21 20" fill="none" xmlns="http://www.w3.org/2000/svg">
<path d="M10.5 13.2812C9.89594 13.2812 9.40625 13.7709 9.40625 14.375C9.40625 14.9791 9.89594 15.4688 10.5 15.4688C11.1041 15.4688 11.5938 14.9791 11.5938 14.375C11.5938 13.7709 11.1041 13.2812 10.5 13.2812ZM10.7996 12.3438H10.1746C9.91574 12.3438 9.70586 12.1339 9.70586 11.875V11.8601C9.70586 9.11234 12.7309 9.375 12.7309 7.66449C12.7309 6.88262 12.0371 6.09375 10.4871 6.09375C9.34867 6.09375 8.75801 6.47066 8.17418 7.21453C8.02152 7.40906 7.74238 7.44871 7.53949 7.30734L7.02645 6.94992C6.80672 6.79684 6.75848 6.49012 6.92313 6.27894C7.75227 5.21539 8.73602 4.53125 10.4871 4.53125C12.5309 4.53125 14.2934 5.6934 14.2934 7.66449C14.2934 10.2979 11.2684 10.1586 11.2684 11.8601V11.875C11.2684 12.1339 11.0585 12.3438 10.7996 12.3438ZM10.5 1.5625C15.1336 1.5625 18.9375 5.31543 18.9375 10C18.9375 14.6598 15.1637 18.4375 10.5 18.4375C5.84203 18.4375 2.0625 14.6655 2.0625 10C2.0625 5.34363 5.83602 1.5625 10.5 1.5625ZM10.5 0.3125C5.15012 0.3125 0.8125 4.65168 0.8125 10C0.8125 15.3514 5.15012 19.6875 10.5 19.6875C15.8499 19.6875 20.1875 15.3514 20.1875 10C20.1875 4.65168 15.8499 0.3125 10.5 0.3125Z" fill="black" stroke="black" stroke-width="0.0390625"/>
</svg>
