<svg width="19" height="20" viewBox="0 0 19 20" fill="none" xmlns="http://www.w3.org/2000/svg">
<path d="M14.5 12.5C15.5416 12.5 16.4271 12.8646 17.1562 13.5938C17.8854 14.3229 18.25 15.2084 18.25 16.25C18.25 17.2916 17.8854 18.1771 17.1562 18.9062C16.4271 19.6354 15.5416 20 14.5 20C13.4584 20 12.5729 19.6354 11.8438 18.9062C11.1146 18.1771 10.75 17.2916 10.75 16.25C10.75 15.8594 10.8021 15.4817 10.9062 15.1172L7.07812 12.7344C6.34896 13.4115 5.48959 13.75 4.5 13.75C3.45834 13.75 2.57291 13.3854 1.84375 12.6562C1.11458 11.9271 0.75 11.0417 0.75 10C0.75 8.95834 1.11458 8.07291 1.84375 7.34375C2.57291 6.61459 3.45834 6.25 4.5 6.25C5.48959 6.25 6.34896 6.58854 7.07812 7.26562L10.9062 4.88281C10.8021 4.51823 10.75 4.14062 10.75 3.75C10.75 2.70834 11.1146 1.82291 11.8438 1.09375C12.5729 0.364584 13.4584 0 14.5 0C15.5416 0 16.4271 0.364584 17.1562 1.09375C17.8854 1.82291 18.25 2.70834 18.25 3.75C18.25 4.79166 17.8854 5.67709 17.1562 6.40625C16.4271 7.13541 15.5416 7.5 14.5 7.5C13.5104 7.5 12.651 7.16146 11.9219 6.48438L8.09375 8.86719C8.32812 9.6224 8.32812 10.3776 8.09375 11.1328L11.9219 13.5156C12.651 12.8385 13.5104 12.5 14.5 12.5ZM15.8281 2.42188C15.4635 2.05729 15.0209 1.875 14.5 1.875C13.9791 1.875 13.5365 2.05729 13.1719 2.42188C12.8073 2.78646 12.625 3.22916 12.625 3.75C12.625 4.27084 12.8073 4.71354 13.1719 5.07812C13.5365 5.44271 13.9791 5.625 14.5 5.625C15.0209 5.625 15.4635 5.44271 15.8281 5.07812C16.1927 4.71354 16.375 4.27084 16.375 3.75C16.375 3.22916 16.1927 2.78646 15.8281 2.42188ZM3.17188 11.3281C3.53646 11.6927 3.97916 11.875 4.5 11.875C5.02084 11.875 5.46354 11.6927 5.82812 11.3281C6.19271 10.9635 6.375 10.5208 6.375 10C6.375 9.47916 6.19271 9.03646 5.82812 8.67188C5.46354 8.30729 5.02084 8.125 4.5 8.125C3.97916 8.125 3.53646 8.30729 3.17188 8.67188C2.80729 9.03646 2.625 9.47916 2.625 10C2.625 10.5208 2.80729 10.9635 3.17188 11.3281ZM13.1719 17.5781C13.5365 17.9428 13.9791 18.125 14.5 18.125C15.0209 18.125 15.4635 17.9428 15.8281 17.5781C16.1927 17.2135 16.375 16.7709 16.375 16.25C16.375 15.7291 16.1927 15.2865 15.8281 14.9219C15.4635 14.5573 15.0209 14.375 14.5 14.375C13.9791 14.375 13.5365 14.5573 13.1719 14.9219C12.8073 15.2865 12.625 15.7291 12.625 16.25C12.625 16.7709 12.8073 17.2135 13.1719 17.5781Z" fill="black"/>
</svg>
