<svg width="933" height="118" viewBox="0 0 933 118" fill="none" xmlns="http://www.w3.org/2000/svg">
<g opacity="0.7" filter="url(#filter0_dn_692_1420)">
<path d="M17.6508 4.89999H92.9508V24.7H41.2008V49.45H86.0508V67.75H41.2008V112H17.6508V4.89999ZM177.067 112H156.817V101.2H156.367C153.667 105.7 150.167 108.95 145.867 110.95C141.567 112.95 137.167 113.95 132.667 113.95C126.967 113.95 122.267 113.2 118.567 111.7C114.967 110.2 112.117 108.1 110.017 105.4C107.917 102.6 106.417 99.25 105.517 95.35C104.717 91.35 104.317 86.95 104.317 82.15V34.45H125.617V78.25C125.617 84.65 126.617 89.45 128.617 92.65C130.617 95.75 134.167 97.3 139.267 97.3C145.067 97.3 149.267 95.6 151.867 92.2C154.467 88.7 155.767 83 155.767 75.1V34.45H177.067V112ZM220.233 34.45H235.833V48.7H220.233V87.1C220.233 90.7 220.833 93.1 222.033 94.3C223.233 95.5 225.633 96.1 229.233 96.1C230.433 96.1 231.583 96.05 232.683 95.95C233.783 95.85 234.833 95.7 235.833 95.5V112C234.033 112.3 232.033 112.5 229.833 112.6C227.633 112.7 225.483 112.75 223.383 112.75C220.083 112.75 216.933 112.5 213.933 112C211.033 111.6 208.433 110.75 206.133 109.45C203.933 108.15 202.183 106.3 200.883 103.9C199.583 101.5 198.933 98.35 198.933 94.45V48.7H186.033V34.45H198.933V11.2H220.233V34.45ZM318.717 112H298.467V101.2H298.017C295.317 105.7 291.817 108.95 287.517 110.95C283.217 112.95 278.817 113.95 274.317 113.95C268.617 113.95 263.917 113.2 260.217 111.7C256.617 110.2 253.767 108.1 251.667 105.4C249.567 102.6 248.067 99.25 247.167 95.35C246.367 91.35 245.967 86.95 245.967 82.15V34.45H267.267V78.25C267.267 84.65 268.267 89.45 270.267 92.65C272.267 95.75 275.817 97.3 280.917 97.3C286.717 97.3 290.917 95.6 293.517 92.2C296.117 88.7 297.417 83 297.417 75.1V34.45H318.717V112ZM334.883 34.45H355.133V48.85H355.433C356.433 46.45 357.783 44.25 359.483 42.25C361.183 40.15 363.133 38.4 365.333 37C367.533 35.5 369.883 34.35 372.383 33.55C374.883 32.75 377.483 32.35 380.183 32.35C381.583 32.35 383.133 32.6 384.833 33.1V52.9C383.833 52.7 382.633 52.55 381.233 52.45C379.833 52.25 378.483 52.15 377.183 52.15C373.283 52.15 369.983 52.8 367.283 54.1C364.583 55.4 362.383 57.2 360.683 59.5C359.083 61.7 357.933 64.3 357.233 67.3C356.533 70.3 356.183 73.55 356.183 77.05V112H334.883V34.45ZM442.747 64.9C441.747 59.5 439.947 55.4 437.347 52.6C434.847 49.8 430.997 48.4 425.797 48.4C422.397 48.4 419.547 49 417.247 50.2C415.047 51.3 413.247 52.7 411.847 54.4C410.547 56.1 409.597 57.9 408.997 59.8C408.497 61.7 408.197 63.4 408.097 64.9H442.747ZM408.097 78.4C408.397 85.3 410.147 90.3 413.347 93.4C416.547 96.5 421.147 98.05 427.147 98.05C431.447 98.05 435.147 97 438.247 94.9C441.347 92.7 443.247 90.4 443.947 88H462.697C459.697 97.3 455.097 103.95 448.897 107.95C442.697 111.95 435.197 113.95 426.397 113.95C420.297 113.95 414.797 113 409.897 111.1C404.997 109.1 400.847 106.3 397.447 102.7C394.047 99.1 391.397 94.8 389.497 89.8C387.697 84.8 386.797 79.3 386.797 73.3C386.797 67.5 387.747 62.1 389.647 57.1C391.547 52.1 394.247 47.8 397.747 44.2C401.247 40.5 405.397 37.6 410.197 35.5C415.097 33.4 420.497 32.35 426.397 32.35C432.997 32.35 438.747 33.65 443.647 36.25C448.547 38.75 452.547 42.15 455.647 46.45C458.847 50.75 461.147 55.65 462.547 61.15C463.947 66.65 464.447 72.4 464.047 78.4H408.097ZM570.478 112H543.928L509.278 4.89999H533.428L557.278 80.2H557.578L581.728 4.89999H606.028L570.478 112ZM632.174 22.45H610.874V4.89999H632.174V22.45ZM610.874 34.45H632.174V112H610.874V34.45ZM665.446 86.8C665.446 89.1 665.896 91.1 666.796 92.8C667.796 94.4 669.046 95.75 670.546 96.85C672.046 97.85 673.746 98.6 675.646 99.1C677.646 99.6 679.696 99.85 681.796 99.85C683.296 99.85 684.846 99.7 686.446 99.4C688.146 99 689.646 98.45 690.946 97.75C692.346 96.95 693.496 95.95 694.396 94.75C695.296 93.45 695.746 91.85 695.746 89.95C695.746 86.75 693.596 84.35 689.296 82.75C685.096 81.15 679.196 79.55 671.596 77.95C668.496 77.25 665.446 76.45 662.446 75.55C659.546 74.55 656.946 73.3 654.646 71.8C652.346 70.2 650.496 68.25 649.096 65.95C647.696 63.55 646.996 60.65 646.996 57.25C646.996 52.25 647.946 48.15 649.846 44.95C651.846 41.75 654.446 39.25 657.646 37.45C660.846 35.55 664.446 34.25 668.446 33.55C672.446 32.75 676.546 32.35 680.746 32.35C684.946 32.35 688.996 32.75 692.896 33.55C696.896 34.35 700.446 35.7 703.546 37.6C706.646 39.5 709.196 42.05 711.196 45.25C713.296 48.35 714.546 52.3 714.946 57.1H694.696C694.396 53 692.846 50.25 690.046 48.85C687.246 47.35 683.946 46.6 680.146 46.6C678.946 46.6 677.646 46.7 676.246 46.9C674.846 47 673.546 47.3 672.346 47.8C671.246 48.3 670.296 49.05 669.496 50.05C668.696 50.95 668.296 52.2 668.296 53.8C668.296 55.7 668.996 57.25 670.396 58.45C671.796 59.65 673.596 60.65 675.796 61.45C678.096 62.15 680.696 62.8 683.596 63.4C686.496 64 689.446 64.65 692.446 65.35C695.546 66.05 698.546 66.9 701.446 67.9C704.446 68.9 707.096 70.25 709.396 71.95C711.696 73.55 713.546 75.6 714.946 78.1C716.346 80.5 717.046 83.5 717.046 87.1C717.046 92.2 715.996 96.5 713.896 100C711.896 103.4 709.246 106.15 705.946 108.25C702.646 110.35 698.846 111.8 694.546 112.6C690.346 113.5 686.046 113.95 681.646 113.95C677.146 113.95 672.746 113.5 668.446 112.6C664.146 111.7 660.296 110.2 656.896 108.1C653.596 106 650.846 103.25 648.646 99.85C646.546 96.35 645.396 92 645.196 86.8H665.446ZM751.412 22.45H730.112V4.89999H751.412V22.45ZM730.112 34.45H751.412V112H730.112V34.45ZM787.084 73.3C787.084 76.4 787.384 79.45 787.984 82.45C788.584 85.35 789.584 88 790.984 90.4C792.484 92.7 794.434 94.55 796.834 95.95C799.234 97.35 802.234 98.05 805.834 98.05C809.434 98.05 812.434 97.35 814.834 95.95C817.334 94.55 819.284 92.7 820.684 90.4C822.184 88 823.234 85.35 823.834 82.45C824.434 79.45 824.734 76.4 824.734 73.3C824.734 70.2 824.434 67.15 823.834 64.15C823.234 61.15 822.184 58.5 820.684 56.2C819.284 53.9 817.334 52.05 814.834 50.65C812.434 49.15 809.434 48.4 805.834 48.4C802.234 48.4 799.234 49.15 796.834 50.65C794.434 52.05 792.484 53.9 790.984 56.2C789.584 58.5 788.584 61.15 787.984 64.15C787.384 67.15 787.084 70.2 787.084 73.3ZM765.784 73.3C765.784 67.1 766.734 61.5 768.634 56.5C770.534 51.4 773.234 47.1 776.734 43.6C780.234 40 784.434 37.25 789.334 35.35C794.234 33.35 799.734 32.35 805.834 32.35C811.934 32.35 817.434 33.35 822.334 35.35C827.334 37.25 831.584 40 835.084 43.6C838.584 47.1 841.284 51.4 843.184 56.5C845.084 61.5 846.034 67.1 846.034 73.3C846.034 79.5 845.084 85.1 843.184 90.1C841.284 95.1 838.584 99.4 835.084 103C831.584 106.5 827.334 109.2 822.334 111.1C817.434 113 811.934 113.95 805.834 113.95C799.734 113.95 794.234 113 789.334 111.1C784.434 109.2 780.234 106.5 776.734 103C773.234 99.4 770.534 95.1 768.634 90.1C766.734 85.1 765.784 79.5 765.784 73.3ZM859.883 34.45H880.133V45.25H880.583C883.283 40.75 886.783 37.5 891.083 35.5C895.383 33.4 899.783 32.35 904.283 32.35C909.983 32.35 914.633 33.15 918.233 34.75C921.933 36.25 924.833 38.4 926.933 41.2C929.033 43.9 930.483 47.25 931.283 51.25C932.183 55.15 932.633 59.5 932.633 64.3V112H911.333V68.2C911.333 61.8 910.333 57.05 908.333 53.95C906.333 50.75 902.783 49.15 897.683 49.15C891.883 49.15 887.683 50.9 885.083 54.4C882.483 57.8 881.183 63.45 881.183 71.35V112H859.883V34.45Z" fill="#EAE6D9"/>
</g>
<defs>
<filter id="filter0_dn_692_1420" x="0.650879" y="0.899902" width="931.982" height="117.05" filterUnits="userSpaceOnUse" color-interpolation-filters="sRGB">
<feFlood flood-opacity="0" result="BackgroundImageFix"/>
<feColorMatrix in="SourceAlpha" type="matrix" values="0 0 0 0 0 0 0 0 0 0 0 0 0 0 0 0 0 0 127 0" result="hardAlpha"/>
<feOffset dx="-13"/>
<feGaussianBlur stdDeviation="2"/>
<feComposite in2="hardAlpha" operator="out"/>
<feColorMatrix type="matrix" values="0 0 0 0 0 0 0 0 0 0 0 0 0 0 0 0 0 0 0.25 0"/>
<feBlend mode="normal" in2="BackgroundImageFix" result="effect1_dropShadow_692_1420"/>
<feBlend mode="normal" in="SourceGraphic" in2="BackgroundImageFix" result="shape"/>
<feTurbulence type="fractalNoise" baseFrequency="2 2" stitchTiles="stitch" numOctaves="3" result="noise" seed="7958" />
<feColorMatrix in="noise" type="luminanceToAlpha" result="alphaNoise" />
<feComponentTransfer in="alphaNoise" result="coloredNoise1">
<feFuncA type="discrete" tableValues="0 0 0 0 1 1 1 1 1 1 1 1 1 1 1 1 1 1 1 1 1 1 1 1 1 1 1 1 1 1 1 1 1 1 1 1 1 1 1 1 1 1 1 1 1 0 0 0 0 0 0 0 0 0 0 0 0 0 0 0 0 0 0 0 0 0 0 0 0 0 0 0 0 0 0 0 0 0 0 0 0 0 0 0 0 0 0 0 0 0 0 0 0 0 0 0 0 0 0 0 "/>
</feComponentTransfer>
<feComposite operator="in" in2="shape" in="coloredNoise1" result="noise1Clipped" />
<feComponentTransfer in="alphaNoise" result="coloredNoise2">
<feFuncA type="discrete" tableValues="0 0 0 0 0 0 0 0 0 0 0 0 0 0 0 0 0 0 0 0 0 0 0 0 0 0 0 0 0 0 0 0 0 0 0 0 0 0 0 0 0 0 0 0 0 0 0 0 0 0 0 0 0 0 0 1 1 1 1 1 1 1 1 1 1 1 1 1 1 1 1 1 1 1 1 1 1 1 1 1 1 1 1 1 1 1 1 1 1 1 1 1 1 1 1 1 0 0 0 0 "/>
</feComponentTransfer>
<feComposite operator="in" in2="shape" in="coloredNoise2" result="noise2Clipped" />
<feFlood flood-color="rgba(0, 0, 0, 0.25)" result="color1Flood" />
<feComposite operator="in" in2="noise1Clipped" in="color1Flood" result="color1" />
<feFlood flood-color="rgba(255, 255, 255, 0.25)" result="color2Flood" />
<feComposite operator="in" in2="noise2Clipped" in="color2Flood" result="color2" />
<feMerge result="effect2_noise_692_1420">
<feMergeNode in="shape" />
<feMergeNode in="color1" />
<feMergeNode in="color2" />
</feMerge>
<feBlend mode="normal" in="effect2_noise_692_1420" in2="effect1_dropShadow_692_1420" result="effect2_noise_692_1420"/>
</filter>
</defs>
</svg>
