<svg width="1440" height="304" viewBox="0 0 1440 304" fill="none" xmlns="http://www.w3.org/2000/svg">
<g clip-path="url(#clip0_1774_165)">
<g clip-path="url(#clip1_1774_165)">
<path d="M1381.34 373.39C1379.38 373.83 1376.57 373.62 1375.63 374.85C1373.41 377.76 1370.89 378.67 1367.48 378.47C1359.67 377.99 1351.86 377.72 1344.05 377.21C1338.16 376.83 1333.36 374.01 1328.91 370.25C1324.56 366.57 1319.65 364.79 1313.86 367.07C1312.61 367.56 1310.94 367.18 1309.51 366.95C1307.29 366.6 1305.1 366.04 1301.59 365.29C1303.28 369.48 1304.84 372.5 1305.67 375.71C1306.24 377.94 1305.81 380.43 1305.82 382.81C1303.66 382.66 1301.36 382.91 1299.35 382.27C1296.29 381.29 1293.43 379.69 1290.83 378.51C1292.15 375.08 1294.05 372.39 1293.92 369.8C1293.81 367.47 1291.48 365.25 1289.87 362.53C1293.15 359.5 1290.87 356.94 1287.61 354.98C1285.08 353.46 1282.25 352.4 1279.51 351.27C1277.92 350.61 1276.23 350.21 1273.38 349.33C1275.81 348.13 1277 347.54 1279.02 346.55C1272.68 338.9 1263.2 343.55 1256.8 338.82C1256.36 339.39 1255.92 339.96 1255.48 340.53C1258.46 343.94 1261.08 347.78 1264.52 350.61C1267.39 352.97 1271.23 354.14 1274.15 356.62C1269.37 356.12 1264.58 355.62 1258.77 355C1260.51 359.14 1261.75 361.94 1262.86 364.79C1264 367.71 1265.03 370.67 1266.25 374C1265.35 374.6 1264.33 375.29 1263 376.18C1263.55 377.39 1264.15 378.68 1264.87 380.26C1264.13 380.7 1263.36 381.3 1262.5 381.63C1248.68 386.94 1234.84 388.44 1220.86 382.02C1217.56 380.5 1214.01 379.44 1210.49 378.48C1207.75 377.73 1204.87 377.47 1201.15 376.84C1198.95 368.33 1191.22 369.13 1183.8 369.4C1180.24 369.53 1178.88 371.65 1180.29 374.77C1182.05 378.7 1184.43 382.34 1186.37 386.2C1187.62 388.7 1188.98 391.26 1189.55 393.96C1191.03 401.07 1187.93 404.27 1180.77 403.61C1178.47 403.4 1176.14 403.46 1173.82 403.43C1171.51 403.4 1169.21 403.43 1167.4 403.43C1163.71 393.34 1157.36 385.51 1150.17 377.11C1147.35 379.99 1144.61 382.73 1141.95 385.55C1141.54 385.99 1141.14 386.9 1141.32 387.36C1143.27 392.17 1144.74 397.3 1147.51 401.6C1150.8 406.71 1155.54 410.76 1153.57 417.99C1152.91 420.4 1154.46 423.42 1155.01 426.17C1149.64 427.22 1149.59 427.68 1153.29 437.94C1156.22 439.61 1158.45 440.89 1160.23 441.91C1157.65 445.71 1155.81 448.42 1153.39 451.98C1151.46 450.26 1149.14 448.6 1147.32 446.49C1139.27 437.21 1136.56 425.31 1131.71 414.45C1129.63 409.79 1126.9 405.42 1124.36 400.98C1123.17 398.9 1121.75 396.96 1119.7 393.84C1126.16 396.64 1129.94 399.97 1132.82 404.93C1135.81 410.06 1138.74 415.65 1145.36 417.83C1140.94 409.42 1144.58 398.86 1137.54 391.18C1136.75 390.32 1136.99 387.56 1137.77 386.35C1142.28 379.39 1141.28 371.84 1140.82 364.25C1140.57 360.05 1138.64 358.25 1134.49 358.52C1132.84 358.63 1130.91 358.89 1129.59 358.19C1128.33 357.52 1126.61 354.99 1126.95 354.47C1130.82 348.44 1125.52 344.59 1123.75 339.97C1123.11 338.3 1121.25 336.92 1121.07 335.28C1120.47 329.72 1117.12 328.11 1112.14 327.6C1109.23 327.3 1106.31 326.21 1103.63 324.95C1100.41 323.44 1097.57 322.22 1094.75 325.61C1094.24 326.22 1092.94 326.25 1091.98 326.4C1085.44 327.41 1078.93 328.78 1072.35 329.26C1065.18 329.78 1058.66 329.52 1057.85 339.66C1057.44 344.74 1052.46 347.52 1047.28 349.42C1042.45 351.19 1040.58 348.88 1039.5 345.4C1036.33 335.13 1033.26 324.82 1030.76 314.38C1029.82 310.47 1030.36 306.16 1030.6 302.05C1030.8 298.47 1029.76 296.77 1025.89 296.89C1019.89 297.09 1017.66 294.96 1016.21 288.68C1015.98 287.68 1014.94 286.83 1014.2 285.99C1011.34 282.78 1008.63 279.41 1005.5 276.49C1003.78 274.89 1001.46 273.71 999.205 272.97C988.175 269.35 977.025 266.09 966.045 262.33C963.795 261.56 962.195 259.04 960.125 257.55C958.795 256.58 957.215 255.48 955.675 255.35C944.875 254.42 936.595 249.52 930.735 240.4C929.865 239.04 928.645 237.17 927.345 236.95C924.605 236.49 921.715 236.97 918.885 237.06C919.415 239.17 919.535 241.51 920.575 243.33C922.515 246.73 924.805 249.99 927.345 252.97C928.145 253.9 930.235 253.72 931.425 253.98C932.275 256.15 932.725 259.69 933.915 259.96C938.655 261.03 943.615 261.39 948.505 261.38C950.645 261.38 952.775 259.84 955.215 258.88C955.215 264.35 957.945 267.22 962.635 269.19C965.345 270.33 967.405 273.03 970.315 275.5C968.415 276.82 967.285 277.68 966.085 278.43C959.625 282.44 952.755 285.53 945.315 287.22C944.075 287.5 942.655 286.9 941.375 287.08C937.705 287.59 934.065 288.27 930.415 288.92C929.615 289.06 928.835 289.46 928.035 289.5C915.945 290.14 903.845 290.69 891.755 291.41C890.475 291.49 888.625 292.16 888.165 293.1C887.705 294.05 888.235 296.41 889.065 296.88C891.815 298.46 894.825 300.24 897.865 300.54C906.425 301.4 915.055 301.57 925.345 302.1C922.895 305.95 921.435 309.22 919.115 311.69C910.575 320.76 900.775 327.36 888.475 331.3C880.185 333.95 872.805 340.25 865.835 345.93C861.165 349.73 860.995 361.75 864.395 366.97C868.145 372.72 866.345 379.01 865.425 384.75C865.065 387.03 860.015 388.86 856.845 390.33C851.475 392.81 845.835 394.71 840.465 397.2C839.605 397.6 839.215 399.82 839.265 401.18C839.325 402.96 840.235 404.7 840.435 406.5C841.125 412.7 840.435 413.63 834.255 414.81C830.755 415.47 827.865 416.32 828.165 420.94C828.255 422.38 827.325 424.49 826.165 425.31C818.905 430.46 811.655 435.72 803.935 440.12C801.005 441.79 796.845 441.54 793.235 441.68C787.265 441.91 781.265 441.58 775.295 441.78C768.615 442.01 767.365 440.02 766.145 433.64C765.265 429.03 762.355 424.25 759.035 420.81C754.795 416.41 752.355 411.43 752.015 405.82C751.585 398.87 748.285 393.62 744.495 388.32C737.725 378.84 738.475 371.67 746.745 363.28C747.825 362.19 749.105 360.25 748.825 359.04C746.475 348.86 745.225 338.1 736.275 330.84C735.365 330.11 734.485 329.34 733.575 328.62C729.365 325.32 727.195 322.09 729.865 316.06C733.575 307.7 732.785 305.61 727.665 302.87C725.845 301.9 723.265 302 721.075 302.18C716.805 302.52 713.365 302.5 710.135 298.39C708.345 296.11 703.725 295.63 700.275 295.21C697.765 294.9 694.985 295.75 692.475 296.54C683.705 299.29 674.935 301.39 665.575 300.48C662.585 300.19 659.455 301.78 656.345 302.12C652.975 302.49 649.265 303.3 646.225 302.32C639.935 300.27 633.995 297.16 627.925 294.47C627.625 294.34 627.265 294.15 627.135 293.88C623.485 286.36 615.435 284.54 609.535 279.96C606.595 277.68 604.835 273.19 606.825 269.05C609.565 263.34 609.505 257.66 607.445 251.94C607.005 250.72 605.325 249.96 603.825 248.63C605.445 245.77 606.705 242.9 608.545 240.46C612.405 235.35 616.475 230.39 620.685 225.56C621.805 224.28 623.745 223.71 625.325 222.84C628.515 221.1 631.855 219.57 634.855 217.56C636.015 216.79 637.225 214.81 637.055 213.57C636.275 207.73 639.975 205.26 644.215 202.97C646.815 201.57 649.685 200.42 651.815 198.47C653.355 197.07 655.115 193.21 654.635 192.76C652.645 190.92 649.885 189.04 647.305 188.89C643.655 188.68 640.385 188.98 638.955 184.79C638.655 183.91 638.155 182.97 638.255 182.11C638.775 177.84 639.465 173.6 640.285 168.01C642.335 167.74 645.675 167.07 649.045 166.91C656.685 166.56 664.355 166.69 671.975 166.1C673.715 165.97 676.355 163.96 676.695 162.4C677.175 160.19 676.705 156.68 675.215 155.38C672.605 153.11 668.935 152.01 665.625 150.62C664.185 150.02 662.515 149.94 660.955 149.62C660.955 149.19 660.955 148.77 660.955 148.34C662.975 148.12 664.995 147.75 667.015 147.72C670.005 147.67 672.525 148.37 675.445 145.48C677.635 143.32 682.875 144.63 686.225 143.18C693.535 140 700.305 135.57 707.675 132.57C712.305 130.69 717.615 130.44 722.635 129.53C724.185 129.25 725.785 129.21 727.805 129.01C727.375 127.51 727.235 126.57 726.845 125.74C723.925 119.48 724.715 118.17 731.625 117.03C735.105 116.46 736.585 117.28 736.285 121.1C736.215 121.97 738.545 123.98 739.445 123.8C742.135 123.29 744.665 121.94 747.245 120.93C744.405 112.48 737.825 109.2 729.805 111.28C725.415 112.42 720.675 112.96 716.185 112.61C713.895 112.43 711.085 110.14 709.755 108.02C706.505 102.88 707.785 100.48 713.725 98.7801C722.925 96.1501 732.255 93.8801 741.275 90.7201C747.435 88.5601 753.215 85.2601 759.005 82.1801C759.955 81.6801 760.105 79.6701 760.825 77.8201C761.245 77.7101 762.355 77.3201 763.485 77.1801C769.435 76.4401 775.435 74.8801 781.325 75.2401C795.185 76.0901 809.075 71.8101 822.915 75.9001C826.635 77.0001 830.895 76.2101 834.645 77.2301C838.755 78.3501 842.455 80.9301 846.545 82.1901C852.215 83.9401 858.175 84.7501 863.845 86.4901C874.315 89.7001 884.675 93.2701 895.045 96.7801C896.205 97.1701 897.155 98.1901 899.095 99.5501C884.795 103.49 872.865 95.8501 859.095 94.5801C862.515 98.4201 864.735 102.03 867.945 104.19C871.085 106.31 875.225 106.95 878.935 108.23L879.585 106.65C878.365 105.75 877.155 104.85 875.935 103.94L876.115 103.3C879.715 104.38 883.275 105.68 886.945 106.44C888.655 106.8 891.675 109.2 892.095 104.66C892.125 104.3 894.135 103.83 895.195 103.9C900.585 104.3 905.965 104.88 911.345 105.35C912.445 105.45 913.555 105.36 914.475 105.36C914.795 102.97 914.895 99.4501 915.335 99.4101C918.145 99.1401 921.025 99.6401 923.875 99.8801C923.925 100.29 923.985 100.7 924.035 101.11C922.915 101.56 921.795 102 919.915 102.74C923.935 106.59 928.075 106.71 932.655 106.72C943.065 106.73 954.105 105.31 963.705 108.28C972.665 111.04 981.865 112.08 990.715 114.76C994.025 115.76 997.305 116.88 1000.6 117.94C1000.85 117.52 1001.1 117.11 1001.35 116.69C1000.81 115.64 1000.28 114.59 999.065 112.21C1014.25 118.85 1028.36 125.03 1042.48 131.21C1042.78 130.79 1043.07 130.37 1043.37 129.96C1040.88 127.99 1038.39 126.02 1035.63 123.83C1035.74 122.87 1035.94 121.22 1036.1 119.92C1038.96 119.65 1042.22 119.9 1045.09 118.96C1053.13 116.33 1059.75 117.94 1064.5 123.47V140.15C1062.63 140.54 1059.4 141.22 1055.83 141.96C1058.57 144.95 1070.15 146.54 1072.37 144.34C1075.69 141.06 1072.79 138.79 1071.12 137.29C1071.31 134.31 1071.45 132.02 1071.61 129.49H1079.93C1080.28 130.84 1080.22 133.21 1081.33 134.08C1082.38 134.9 1084.67 133.96 1086.4 134.09C1089.17 134.3 1092.19 134.16 1094.63 135.24C1099.78 137.51 1104.61 140.5 1109.61 143.12C1111.22 143.96 1112.96 144.57 1115.2 144.25C1112.85 142.19 1110.49 140.14 1108.15 138.08C1108.36 137.69 1108.57 137.3 1108.78 136.91C1112.11 138.01 1115.48 139.05 1118.78 140.24C1124.41 142.28 1129.98 144.48 1135.63 146.45C1136.43 146.73 1137.55 146.07 1138.53 145.84C1138.46 145.25 1138.4 144.66 1138.32 144.07C1142.43 145.2 1146.66 145.99 1150.63 147.51C1166.27 153.51 1181.77 159.91 1197.45 165.8C1204.99 168.63 1212.75 170.94 1220.55 172.99C1230.65 175.64 1238.9 181.29 1246.82 187.75C1249.98 190.33 1253.69 192.21 1257.12 194.47C1263.49 198.67 1269.85 202.87 1276.15 207.17C1277.17 207.87 1277.85 209.06 1279.41 210.86C1276.04 210.28 1273.76 209.89 1271.45 209.49C1274.77 218.9 1283.73 221.17 1290.59 225.97C1299.53 232.23 1308.35 238.65 1317.39 244.76C1319.62 246.27 1322.5 246.82 1325.09 247.8C1326.48 248.33 1328.08 248.55 1329.24 249.39C1336.21 254.47 1343.14 259.62 1349.92 264.95C1351.04 265.83 1351.98 267.7 1351.97 269.11C1351.95 274.4 1356.34 281.1 1361.29 281.58C1365.78 282.02 1368.59 284.41 1371.93 287.07C1380.36 293.79 1388.61 302.23 1398.42 305.4C1419.09 312.09 1430.74 329.54 1446.86 341.51C1450.05 343.88 1451.62 348.33 1454.59 351.14C1463.37 359.47 1472.52 367.43 1481.45 375.61C1484.88 378.75 1489.53 381.5 1491.2 385.45C1497.29 399.87 1511.7 406.2 1520.86 417.53C1522.8 419.93 1525.79 421.46 1528.04 423.66C1529.54 425.13 1530.54 427.09 1531.8 428.81C1533.84 431.6 1535.75 434.52 1538.07 437.05C1538.68 437.71 1540.62 437.15 1541.95 437.15C1542.29 436.6 1542.63 436.05 1542.97 435.49C1554.7 449.03 1566.46 462.56 1578.15 476.14C1580.18 478.5 1580.83 480.92 1578.28 483.61C1576.71 485.26 1575.69 487.42 1574.2 489.68C1571.8 488.3 1569.59 487.03 1566.71 485.37V492.82C1565.95 492.33 1565.09 492.02 1564.57 491.42C1554.12 479.21 1540.81 470.73 1527.21 462.64C1526.07 461.96 1524.58 461.49 1523.92 460.49C1516.98 449.97 1506.17 443.67 1496.76 435.93C1493.83 433.52 1489.19 433.2 1485.13 431.86C1485.76 435.62 1486.16 438.04 1486.66 441.08C1482.92 440.18 1480.4 436.02 1477.93 441.08C1472.02 435.71 1464.78 435.11 1457.53 434.49C1452.18 434.04 1450.31 432 1450.37 426.75C1450.39 425.09 1450.44 423.42 1450.57 421.76C1451.24 413.24 1453.2 411.7 1461.32 415.05C1471.73 419.35 1481.82 424.38 1492.01 429.2C1494.93 430.58 1497.67 432.09 1501.07 428.7C1499.61 427.63 1498.47 426.52 1497.12 425.87C1492.66 423.74 1488.08 421.86 1483.65 419.67C1482.57 419.13 1481.36 417.9 1481.1 416.78C1479.26 408.65 1472.6 405.12 1466.2 401.93C1461.83 399.76 1456.23 400.09 1451.84 397.94C1447.03 395.59 1442.76 391.93 1438.7 388.35C1435.86 385.85 1434.17 382.01 1431.24 379.65C1424.29 374.05 1416.43 369.5 1409.82 363.55C1400.49 355.13 1389.29 351.55 1377.59 348.61C1371.7 347.13 1365.88 345.41 1360.02 343.8C1359.66 344.29 1359.31 344.77 1358.95 345.26C1363.29 349.36 1367.08 354.4 1372.1 357.33C1378.55 361.1 1383.05 367.19 1381.41 373.38V373.35L1381.34 373.39ZM775.905 168.02C775.575 168.43 775.245 168.83 774.915 169.24C771.295 168.27 767.445 167.77 764.105 166.2C759.775 164.17 755.955 161.06 751.675 158.91C750.225 158.18 747.875 158.54 746.265 159.21C745.695 159.45 745.455 162.88 746.175 163.46C750.015 166.55 754.025 169.54 758.345 171.9C762.145 173.98 766.425 175.2 770.495 176.8C766.095 177.41 765.995 179.62 767.895 182.65C765.815 183.83 764.105 184.8 762.405 185.77C765.455 181.85 763.465 179.67 760.035 178.08C755.365 175.92 750.505 174.12 745.945 171.75C742.335 169.87 738.785 167.68 735.695 165.05C732.465 162.31 729.135 160.9 725.225 162.52C718.765 165.21 712.325 166.43 705.295 164.96C703.445 164.57 699.655 165.84 699.365 166.99C698.205 171.64 694.565 171.61 691.245 172.95C688.135 174.2 683.635 176.19 683.015 178.67C680.915 187.06 674.545 187.78 668.075 188.95C665.625 189.39 663.075 189.42 660.695 190.1C659.525 190.44 658.665 191.84 657.665 192.77C658.785 193.62 659.925 195.22 661.025 195.18C666.785 195.01 672.905 195.54 678.195 193.75C688.315 190.33 698.515 188.92 709.065 188.9C714.855 188.89 720.685 188.96 726.415 188.3C734.575 187.37 734.855 187.29 737.425 194.93C736.285 196.19 735.145 197.46 733.065 199.76C739.635 201.35 745.185 202.7 750.735 204.05C752.825 204.56 755.605 204.4 756.875 205.71C762.025 210.99 769.355 210.72 775.445 213.49C777.095 214.24 780.855 213.42 781.845 212.03C785.975 206.22 789.555 205.11 796.145 207.65C808.445 212.37 820.625 217.86 834.395 216.2C835.975 216.01 837.725 216.44 839.275 216.94C850.845 220.73 852.995 220.18 859.335 210.02C860.765 207.73 860.605 204.46 861.185 201.65C858.365 201.16 855.545 200.64 852.715 200.19C849.235 199.64 845.755 199.13 842.275 198.64C839.615 198.27 836.945 197.96 834.285 197.62C829.905 197.06 825.515 196.51 821.135 195.92C820.855 195.88 820.515 195.59 820.365 195.32C818.295 191.78 814.665 188.27 814.565 184.66C814.375 178.28 810.525 179.09 806.965 179.24C803.595 179.39 800.265 180.42 794.985 181.44C798.565 183.9 801.235 185.73 804.145 187.72C801.745 189 800.335 189.56 799.145 190.42C795.445 193.11 792.775 192.76 790.215 189.15C788.985 187.41 787.615 185.77 786.395 184.03C782.955 179.16 779.545 174.28 776.155 169.37C775.925 169.03 775.995 168.48 775.935 168.03L775.905 168.02ZM799.105 116.26C799.035 116.09 798.975 115.92 798.905 115.76C804.485 115.48 810.075 114.72 815.625 115.01C829.035 115.69 829.025 115.89 832.535 113.35C829.695 112.69 827.555 111.85 825.385 111.75C817.595 111.37 809.755 111.71 802.025 110.88C793.515 109.97 793.075 108.89 794.105 100.65C800.855 98.7001 807.505 96.7801 814.145 94.8501L813.725 92.9601C807.635 90.5701 800.685 88.6701 795.315 92.6901C791.095 95.8401 786.855 96.6601 782.285 97.8101C779.725 98.4501 777.055 99.1601 774.865 100.53C773.405 101.44 772.295 103.48 771.905 105.22C771.765 105.83 774.155 107.12 775.495 107.93C776.795 108.72 778.235 109.28 780.225 110.23C778.735 111.17 778.105 111.86 777.365 111.99C772.745 112.85 767.885 113.27 767.525 119.67C767.495 120.16 766.335 120.84 765.615 121C761.125 121.99 756.635 123.02 752.095 123.71C746.775 124.52 741.405 124.98 736.065 125.63C735.935 125.65 735.875 126.19 735.455 127.56C738.645 127.87 741.615 128.27 744.605 128.43C747.345 128.58 750.105 128.34 752.845 128.5C755.565 128.66 758.275 129.42 760.975 129.37C767.475 129.25 773.815 126.45 780.515 129.77C784.235 131.61 790.015 127.39 791.585 123.3C792.985 119.64 795.995 119.07 799.405 120.24C801.125 120.83 802.685 122.12 804.415 122.38C805.615 122.56 806.995 121.52 808.295 121.02C807.655 119.85 807.255 117.99 806.305 117.63C804.055 116.79 801.535 116.67 799.125 116.26H799.105ZM878.005 168.78C877.255 167.76 876.505 166.74 875.755 165.71C870.505 167.91 862.875 161.04 859.565 170.86C859.435 171.24 858.395 171.33 857.765 171.53C854.045 172.7 851.895 170.63 849.915 167.89C846.375 163.01 839.965 161.64 835.125 164.82C831.575 167.15 828.105 169.64 824.815 172.31C821.275 175.18 821.635 178.64 825.975 179.62C831.865 180.94 838.025 180.99 844.055 181.76C850.375 182.57 856.705 183.36 862.955 184.57C871.205 186.16 879.355 188.29 887.625 189.82C888.915 190.06 890.575 188.35 892.065 187.54C891.205 186.21 890.485 184.74 889.435 183.59C888.685 182.78 887.465 182.39 886.465 181.81C881.205 178.77 875.955 175.72 870.695 172.68C871.615 173.5 872.535 174.31 873.465 175.13C874.985 173.01 876.505 170.9 878.025 168.78H878.005ZM930.175 201.4C929.375 202.35 927.625 203.67 926.975 205.4C926.425 206.89 926.565 210.01 927.385 210.4C933.115 213.19 939.045 215.62 945.055 217.77C946.425 218.26 949.505 217.55 949.805 216.7C950.495 214.71 950.395 212.18 949.825 210.08C949.325 208.23 947.765 206.67 946.265 204.35C949.745 204.79 952.135 205.09 954.515 205.39L955.305 203.44C952.705 201.74 950.105 200.05 947.505 198.35C947.455 198.52 947.405 198.68 947.365 198.85C944.205 195.47 941.045 192.09 937.875 188.72C938.105 188.19 938.325 187.67 938.555 187.14C941.475 187.14 944.435 187.37 947.315 187.02C948.435 186.89 949.805 185.62 950.265 184.54C950.515 183.95 949.335 182.17 948.425 181.74C939.725 177.7 930.855 179.72 922.075 181.42C919.205 181.98 918.335 183.59 920.395 186.45C923.795 191.17 926.795 196.18 930.175 201.39V201.4ZM887.205 290.92C887.895 290.55 888.585 290.18 889.275 289.81C888.155 284.43 887.755 278.76 885.735 273.74C882.285 265.17 871.955 260.67 871.275 250.23C871.245 249.8 870.765 249.39 870.455 249C866.205 243.73 861.885 238.52 857.735 233.18C854.815 229.41 851.365 229.16 846.425 231.14C851.015 238.4 855.435 245.27 859.705 252.21C860.805 254 862.315 256.1 862.195 257.97C861.935 262.28 863.445 265.27 866.725 267.86C867.965 268.84 869.055 270.42 869.475 271.93C872.185 281.56 882.105 283.79 887.195 290.92H887.205ZM1245.82 199.46C1245.58 200.09 1245.33 200.73 1245.09 201.36C1248.76 202.89 1252.44 204.41 1256.11 205.94C1256.39 205.25 1256.67 204.56 1256.95 203.87C1253.24 202.4 1249.53 200.93 1245.82 199.46ZM1261.58 204.64C1261.15 205.35 1260.72 206.06 1260.29 206.76C1263.3 208.7 1266.31 210.64 1269.32 212.58L1270.53 210.74L1261.58 204.64Z" fill="#F5F5DC"/>
<path d="M329.665 139.78C328.335 141.79 327.695 142.78 326.265 144.93C337.885 143.27 348.415 141.78 360.265 140.09C354.825 144.99 351.315 150.46 343.875 149.8C341.065 149.55 338.175 149.45 335.405 149.84C334.155 150.01 333.085 151.54 331.935 152.46C333.135 153.32 334.275 154.81 335.545 154.92C339.245 155.25 342.995 155.04 347.215 155.04C346.645 162.03 340.625 158.85 337.635 161.55C337.815 162.04 338.145 162.94 338.865 164.87C329.645 166.53 320.615 169.28 311.535 169.48C302.705 169.67 294.835 171.34 287.285 175.63C284.955 176.95 282.285 177.68 279.775 178.68C279.535 178.21 279.295 177.75 279.045 177.28C281.075 176.06 282.995 174.05 285.155 173.75C293.855 172.54 297.745 165.2 303.375 160.11C303.845 159.68 303.675 157.65 303.565 157.63C302.055 157.34 299.965 156.59 299.065 157.29C295.795 159.83 290.855 159.14 288.405 163.61C287.405 165.42 283.865 165.83 280.885 165.96C282.935 164.24 284.975 162.53 288.335 159.7C284.955 159.7 283.025 159.67 281.105 159.7C279.685 159.73 278.235 159.66 276.875 159.95C274.415 160.47 271.875 160.96 269.595 161.96C266.015 163.54 262.625 165.56 259.135 167.34C257.145 168.35 255.105 169.26 251.725 170.87C254.295 171.6 255.275 171.88 255.665 171.99C256.085 173.98 256.455 175.74 257.095 178.79C253.865 181.66 249.445 185.57 244.225 190.21C247.415 189.81 250.365 189.45 253.305 189.06C256.405 188.64 259.495 188.18 263.715 187.57C262.495 188.73 262.145 189.37 261.715 189.43C255.195 190.37 250.055 193.62 245.295 198.08C243.645 199.63 240.415 199.48 237.555 200.19V192.2C235.795 193.59 234.415 194.14 233.965 195.11C231.305 200.86 225.965 203.63 221.425 207.48C214.515 213.33 208.695 220.47 202.555 227.2C201.505 228.35 200.885 230.12 200.625 231.7C200.045 235.19 201.825 236.34 205.315 235.77C208.055 235.33 210.925 235.7 213.735 235.73C214.865 235.74 216.085 236.07 217.125 235.77C228.245 232.55 239.345 229.23 250.445 225.94C251.725 225.56 253.155 225.46 254.255 224.8C260.745 220.94 266.205 221.1 272.525 226.28C276.735 229.73 282.945 229.55 287.515 220.78C285.445 219.25 283.175 217.58 280.525 215.63C284.035 212.91 287.105 211.18 289.265 208.66C291.025 206.61 291.695 203.63 292.855 201.06C290.475 200.26 288.115 199.43 285.725 198.67C285.155 198.49 284.515 198.52 285.265 197.76C284.205 193.92 283.145 190.08 281.915 185.62C294.965 180.67 307.795 174.49 323.305 176.11C328.315 182.01 339.445 181.19 344.975 172.93C347.895 168.57 350.645 166.57 355.755 168.92C360.355 171.03 364.985 173.28 369.835 174.58C373.865 175.66 378.225 175.5 382.445 175.82C387.325 176.2 392.215 176.4 397.075 176.94C397.865 177.03 399.005 178.42 399.105 179.3C399.375 181.86 399.205 184.47 399.205 187.98C401.775 187.98 404.805 187.56 407.665 188.09C410.995 188.71 414.165 190.15 417.405 191.24C417.405 191.99 417.415 192.73 417.425 193.48C407.575 195.52 397.715 197.55 386.945 199.78C389.865 194.52 392.575 189.66 395.275 184.79C394.975 184.45 394.675 184.11 394.375 183.78C392.435 184.75 390.205 185.38 388.605 186.75C379.965 194.13 369.425 197.27 358.805 199.94C350.285 202.08 344.305 207.73 337.985 213.05C337.565 213.4 337.465 214.12 336.825 215.49C344.305 211.66 351.025 208.22 357.735 204.79L358.775 206.18C358.485 207.39 357.605 208.91 358.035 209.73C358.755 211.09 360.265 212.85 361.555 212.95C365.165 213.22 368.915 213.1 372.455 212.38C374.295 212.01 375.765 209.97 377.515 208.85C378.725 208.07 380.105 207.57 381.405 206.94C381.685 207.54 381.965 208.13 382.235 208.73C373.505 214.27 364.785 219.82 356.055 225.36C355.765 224.98 355.465 224.61 355.175 224.23C356.225 222.68 357.275 221.13 358.325 219.57C358.145 219.26 357.975 218.95 357.795 218.63C356.005 219.47 354.085 220.11 352.455 221.2C347.205 224.7 342.095 228.42 336.865 231.95C333.455 234.25 332.035 236.88 334.965 240.5C330.085 243.99 324.675 246.73 320.855 250.92C317.215 254.92 315.235 260.43 312.055 266.13C312.515 266.77 313.745 268.45 315.325 270.62C309.385 276.96 303.315 283.26 297.465 289.75C291.215 296.68 291.425 298.5 298.475 304.77C298.595 304.88 298.765 304.97 298.845 305.1C300.345 307.64 301.985 310.12 303.195 312.79C303.385 313.21 301.265 315.42 300.815 315.25C297.365 313.92 293.185 312.99 290.895 310.44C286.755 305.83 284.265 304.85 279.045 308.27C278.005 308.95 276.675 309.31 275.425 309.54C268.045 310.94 261.185 312.87 257.165 320.32C256.175 322.15 253.165 323.53 250.875 323.92C239.505 325.85 231.885 332.91 225.435 341.71C224.595 342.86 223.705 344.47 223.845 345.76C224.345 350.3 225.315 354.78 226.055 359.3C227.205 366.33 239.715 373.01 248.625 367.7C252.475 365.41 256.175 362.81 259.695 360.03C261.035 358.98 262.495 357.06 262.515 355.52C262.645 345.95 270.595 345.17 277.005 341.51C276.305 349.03 275.685 355.71 274.975 363.43C278.495 361.94 281.205 360.87 283.845 359.63C285.795 358.71 287.585 357.42 289.545 356.53C297.935 352.69 300.295 354.05 300.565 363.01C300.665 366.33 300.765 370.06 304.455 370.75C308.315 371.48 313.455 372.18 316.255 370.28C321.375 366.8 325.755 363.75 332.475 364.41C334.405 364.6 336.895 360.29 338.925 357.87C340.935 355.47 342.395 352.54 344.635 350.4C347.715 347.46 351.305 345.04 354.705 342.37C354.805 343.42 354.935 344.71 355.155 346.87C357.405 345.51 359.775 344.91 360.535 343.46C362.375 339.95 365.255 340.92 368.055 340.66C373.895 340.11 379.785 339.67 385.485 338.41C387.945 337.87 389.855 335.13 392.275 333.95C393.735 333.24 395.745 333.77 397.455 333.45C399.275 333.11 401.025 332.43 402.065 332.12C404.655 333.45 407.115 334.98 409.775 336.02C419.415 339.82 428.965 340.17 439.215 337.34C444.755 335.81 451.005 336.94 455.235 343.33C459.765 350.17 466.485 353.27 475.355 351.05C478.735 350.2 482.755 352.33 486.495 352.39C491.585 352.48 496.685 351.71 501.785 351.66C505.845 351.62 509.945 351.92 513.975 352.45C517.875 352.96 521.675 354.24 525.575 354.68C530.875 355.28 533.405 362.14 529.825 367.72C526.515 372.88 522.435 377.56 519.265 382.79C517.785 385.24 516.695 388.63 517.075 391.37C518.435 401.12 515.095 409.67 510.515 417.64C508.955 420.36 504.525 421.37 501.515 423.33C495.995 426.92 490.215 430.24 485.255 434.5C483.395 436.1 483.475 440.01 482.805 442.89C482.375 444.74 482.745 446.97 481.835 448.48C477.185 456.15 472.105 463.57 467.425 471.22C464.255 476.42 459.315 477.66 453.875 478.23C452.035 478.42 450.215 478.78 447.925 479.14C450.825 481.8 453.015 483.81 455.135 485.76C453.835 490.9 450.375 493.56 446.195 495.55C443.645 496.77 440.915 497.71 438.575 499.26C437.245 500.14 435.695 502.02 435.745 503.39C435.895 507.76 433.035 508.48 429.915 509.52C428.325 510.05 426.995 511.36 425.545 512.32C427.035 513.48 428.525 514.64 429.585 515.47C428.725 517.32 427.675 519.97 426.295 522.44C425.375 524.1 423.985 525.49 422.855 527.03C421.735 528.56 420.685 530.15 419.605 531.71C421.285 532.54 422.945 533.41 424.655 534.18C425.335 534.48 426.125 534.54 427.085 534.77C424.285 539.03 421.845 543.07 419.075 546.88C416.735 550.09 417.415 554.75 420.965 556.71C422.545 557.59 424.265 558.31 426.015 558.77C427.735 559.22 429.565 559.26 432.325 559.61C420.955 566.23 410.165 569.85 398.535 563.11C396.075 561.69 394.445 558.74 392.615 556.36C390.375 553.45 390.515 550.65 393.085 547.81C393.415 547.44 391.955 545.44 391.015 543.61C392.605 541.43 391.145 536.99 395.545 534.57C396.825 533.86 395.745 528.85 395.745 525.81C395.155 525.75 394.565 525.68 393.965 525.62C393.365 527.45 392.765 529.28 392.165 531.11C391.955 531.11 391.735 531.11 391.525 531.11C391.355 528.2 391.295 525.27 391.005 522.37C390.715 519.5 390.145 516.66 389.805 513.79C389.655 512.56 389.475 511.19 389.855 510.07C392.435 502.43 393.805 495.06 391.665 486.71C389.935 479.99 391.195 472.55 390.735 465.45C390.385 460 389.865 454.49 388.625 449.19C387.085 442.64 384.165 440.93 376.535 440.53C371.725 440.28 366.915 440.04 362.125 439.57C360.735 439.43 359.205 438.79 358.095 437.92C351.595 432.84 345.255 427.55 338.725 422.5C337.345 421.43 335.465 420.88 333.735 420.4C327.945 418.82 326.935 416.54 329.835 411.23C330.225 410.52 330.485 409.75 330.785 409.08C326.165 404.76 325.935 399.78 329.555 394.65C332.105 391.04 335.535 387.34 336.175 383.3C336.795 379.39 334.825 374.78 333.045 370.9C332.155 368.97 329.295 367.76 327.105 366.64C323.705 364.91 320.275 368.23 319.345 374.61C313.705 374.61 307.925 374.61 302.135 374.61C301.305 374.61 300.445 374.56 299.665 374.78C296.885 375.56 295.045 374.68 292.375 373.21C288.475 371.07 282.985 370.22 278.555 371C270.115 372.48 262.075 376.02 253.125 374.11C251.145 373.69 247.995 374.57 246.645 376.03C240.195 383.01 231.265 383.54 223.005 385.6C215.795 387.4 208.385 388.36 201.035 389.56C198.495 389.97 196.065 390.05 195.775 386.2C195.675 384.92 194.015 383.5 192.735 382.64C191.555 381.85 189.955 381.45 188.505 381.33C178.035 380.48 167.545 379.85 157.075 378.89C155.075 378.71 153.245 377.11 151.225 376.63C148.945 376.1 146.485 375.68 144.235 376.04C143.035 376.23 142.115 378.18 141.065 379.33C142.525 380.48 143.815 382.22 145.475 382.68C152.545 384.66 159.715 386.25 166.855 387.99C169.075 388.53 171.285 389.11 173.355 390.45C168.785 389.98 164.185 393.6 159.645 389.46C158.475 388.39 155.605 388.93 153.555 389.14C151.785 389.32 150.075 390.07 147.525 390.8C149.375 386.02 147.115 385.51 143.405 385.43C140.035 385.35 136.295 384.79 133.405 383.21C128.025 380.26 122.795 380.21 117.715 382.83C112.495 385.51 107.475 384.71 102.275 383.49C99.845 382.92 97.465 382.15 95.015 381.72C89.115 380.68 84.055 375.47 82.995 369.44C82.225 365.09 82.355 359.99 77.375 357.96C74.855 356.93 71.695 356.54 69.025 357C64.975 357.7 61.095 359.39 57.145 360.66C57.255 360.16 57.355 359.66 57.455 359.16C55.315 358.38 53.165 356.95 51.025 356.96C46.565 356.98 42.325 359.73 37.515 357.61C36.305 357.08 33.415 358.46 32.365 359.79C29.685 363.21 26.665 364.72 22.415 363.64C21.955 363.52 21.405 363.6 20.925 363.71C3.54503 367.73 -13.105 373.1 -26.565 385.8C-31.095 390.08 -36.835 393.1 -42.105 396.56C-44.825 398.35 -48.335 399.37 -47.665 403.77C-47.605 404.17 -47.985 404.73 -48.295 405.08C-52.715 409.99 -57.165 414.88 -61.975 420.18C-62.535 418.68 -62.995 417.45 -63.445 416.23C-63.865 416.04 -64.285 415.85 -64.695 415.66C-68.505 423.82 -71.935 432.19 -76.245 440.09C-80.665 448.19 -85.955 455.82 -91.345 463.39C-91.445 457.55 -84.575 454.06 -86.455 446.34C-91.675 451.05 -96.175 455.05 -100.605 459.12C-102.755 461.1 -104.045 464.63 -108.225 462.41C-108.795 462.11 -110.815 464.03 -111.855 465.19C-115.895 469.68 -120.025 473.86 -127.045 473.06C-125.395 462.06 -115.185 456.67 -110.385 447.48C-112.445 445.13 -114.075 445.92 -115.945 447.95C-120.575 452.96 -125.195 458 -130.115 462.72C-132.645 465.15 -135.805 466.95 -139.005 468.62C-135.695 457.56 -125.165 452.67 -118.395 444.66C-118.785 444.17 -119.175 443.68 -119.575 443.19C-126.155 447.2 -132.735 451.22 -139.325 455.23L-139.835 454.68C-138.515 453.11 -137.035 451.64 -135.895 449.94C-133.325 446.12 -131.195 441.97 -128.395 438.33C-122.845 431.1 -117.335 423.77 -111.125 417.11C-103.695 409.14 -96.055 401.23 -87.635 394.37C-69.485 379.57 -50.865 365.35 -32.255 351.13C-26.065 346.4 -18.995 342.8 -12.965 337.9C-5.26496 331.65 1.71504 324.53 9.15504 317.95C13.865 313.79 18.845 309.94 23.695 305.94C24.965 304.89 26.615 303.99 27.335 302.63C29.105 299.29 31.795 297.9 35.355 297.59C36.325 297.5 37.435 297.28 38.205 296.73C43.235 293.1 48.045 289.15 53.215 285.73C59.285 281.72 65.615 278.11 71.885 274.42C77.075 271.36 82.345 268.42 87.575 265.43C87.355 264.96 87.145 264.49 86.925 264.02C85.575 264.11 84.235 264.19 82.885 264.28C82.645 264.02 82.415 263.76 82.175 263.5C83.785 262.49 85.385 261.47 86.995 260.46C86.695 260.07 86.385 259.68 86.085 259.29C83.585 260.73 81.235 262.78 78.545 263.42C76.095 264.01 73.275 263.04 70.625 262.82C69.795 262.75 68.705 262.55 68.175 262.97C66.755 264.1 65.485 265.44 64.335 266.85C54.785 278.44 53.725 279.22 39.295 284.6C41.475 278.92 42.015 273.35 47.955 269.76C62.425 261.02 76.125 251.13 92.515 245.75C98.715 243.72 103.905 238.76 109.785 235.56C112.895 233.87 116.485 233.01 119.905 231.91C121.035 231.55 122.305 231.6 124.465 231.36C123.015 229.48 122.185 228.4 121.125 227.03C125.265 223.89 129.425 220.74 133.405 217.72C140.855 227.48 148.395 220.78 156.605 219.76C154.655 221.91 152.915 224.32 150.695 226.15C148.415 228.02 145.675 229.32 143.135 230.86C143.405 231.44 143.685 232.02 143.955 232.6C145.355 232.21 146.865 232.04 148.135 231.4C155.545 227.64 162.935 223.86 170.225 219.89C172.465 218.67 175.055 217.23 172.595 213.71C172.225 213.17 173.815 210.55 175.055 209.76C177.385 208.27 180.115 207.42 182.675 206.3C182.215 206.03 181.745 205.77 181.285 205.5C182.095 202.91 183.125 200.36 183.625 197.71C184.005 195.69 183.705 193.55 183.095 191.2C187.985 184.07 196.725 182.8 203.725 178.55C204.005 178.94 204.275 179.33 204.555 179.72C200.145 183.31 195.725 186.89 191.315 190.48C191.525 191.23 191.725 191.99 191.935 192.74C197.245 192.79 202.545 192.85 207.855 192.87C208.995 192.87 210.595 192.19 211.195 192.72C214.175 195.32 215.355 192.93 217.195 191.18C219.605 188.88 222.195 186.05 225.255 190.96C225.705 191.69 229.565 191.27 230.955 190.21C233.325 188.4 235.165 185.78 236.875 183.26C237.545 182.27 237.855 180.21 237.275 179.44C236.645 178.61 234.625 178.18 233.475 178.51C229.965 179.51 226.675 181.32 223.135 182.12C219.735 182.89 216.135 182.79 211.315 183.18C215.395 173.09 223.275 170.01 231.035 166.61C230.295 167.53 228.985 168.44 228.955 169.39C228.925 170.58 229.945 171.79 230.505 172.99C231.565 172.4 233.585 171.71 233.525 171.24C232.875 165.48 237.985 164.2 241.155 162.6C251.515 157.37 262.095 152.33 273.045 148.57C279.155 146.47 286.245 147.46 292.765 146.34C301.725 144.8 310.535 142.48 319.455 140.69C322.455 140.09 325.575 140.12 329.685 139.78H329.665ZM126.765 244.99C124.365 242 122.125 243.02 119.525 244.77C111.895 249.88 105.265 256.84 95.425 258.01C94.475 258.12 93.655 259.31 92.665 260.09C93.675 261.56 94.525 262.81 95.645 264.45C106.095 257.92 116.365 251.5 126.765 245V244.99ZM184.905 210.76C188.415 208.55 191.725 206.46 195.035 204.38C194.845 203.72 194.655 203.06 194.465 202.4C192.265 202.52 189.405 201.82 188.005 202.94C185.235 205.14 183.685 208.44 184.905 210.77V210.76Z" fill="#F5F5DC"/>
<path d="M393.765 117.65C394.815 111.06 401.315 114.19 405.595 110.4C402.075 110.4 399.755 110.12 397.545 110.48C395.275 110.84 393.145 111.98 390.885 112.46C389.945 112.66 388.045 112.23 387.915 111.73C385.685 103.4 377.865 104.59 372.935 104.95C362.475 105.71 352.065 108.38 341.865 111.13C334.685 113.06 327.955 116.61 320.895 119.09C313.375 121.74 305.625 122.67 297.085 120.1C309.255 114.4 321.035 108.88 332.815 103.37C332.585 102.78 332.345 102.19 332.115 101.59C329.795 101.89 327.485 102.2 323.705 102.69C327.315 100.84 329.585 99.4998 331.995 98.4698C348.025 91.5798 363.005 82.2698 379.985 77.6098C387.135 75.6498 395.055 75.2098 401.355 71.7598C410.245 66.8898 421.105 68.1598 429.255 61.1598C432.185 58.6398 437.385 58.7198 441.575 57.6998C462.245 52.6798 482.795 47.0298 503.645 42.8998C519.225 39.8098 535.185 38.6998 550.985 36.6998C551.065 37.1998 551.145 37.6998 551.225 38.1898C549.745 38.8898 548.275 39.5998 546.795 40.2998C546.905 40.8198 547.005 41.3398 547.115 41.8598C549.365 41.5298 551.655 41.3398 553.875 40.8398C558.135 39.8598 562.265 37.3398 566.675 40.6698C567.305 41.1398 568.865 40.3598 569.995 40.1898C583.865 38.1698 597.735 36.1598 611.785 35.0098C596.305 38.8798 581.115 43.2198 566.185 50.7298C570.965 54.0598 577.575 48.6298 580.245 54.8098C575.665 55.2398 570.955 55.6798 566.255 56.1198C566.195 56.6798 566.135 57.2398 566.075 57.7998C569.355 59.9498 576.725 55.2598 576.045 63.7598C572.715 65.2598 568.595 66.5698 565.095 68.8298C561.205 71.3398 562.435 74.6198 565.615 77.4698C565.505 77.9298 565.395 78.3898 565.285 78.8498C561.055 78.8498 556.785 79.1398 552.595 78.7398C550.125 78.4998 547.775 77.2398 546.135 81.6598C549.725 81.9398 552.865 82.1898 557.555 82.5598C549.915 85.2198 543.575 87.7298 537.045 89.6098C529.865 91.6798 522.485 93.0098 515.275 94.9698C512.445 95.7398 509.475 96.8898 507.185 98.6598C499.215 104.81 490.045 108.09 480.475 110.5C475.535 111.75 472.305 113.97 469.175 118.78C465.625 124.24 461.895 129.82 457.855 134.99C456.295 136.98 451.865 136.94 448.675 137.38C446.255 137.71 443.555 136.69 441.285 137.35C429.495 140.74 419.475 136.19 409.515 130.93C408.365 130.32 406.955 130.18 405.865 129.5C404.175 128.44 401.585 127.28 401.335 125.83C401.065 124.21 402.595 121.78 404.055 120.52C405.585 119.2 408.115 119.12 409.885 117.99C410.975 117.3 411.445 115.65 412.195 114.43C410.775 114.21 409.215 113.48 407.975 113.85C403.745 115.12 399.645 116.81 395.465 118.24C395.005 118.4 394.315 117.87 393.785 117.68L393.765 117.65Z" fill="#F5F5DC"/>
<path d="M344.335 88.5298C325.695 98.6298 307.025 108.68 288.465 118.92C286.215 120.16 284.675 122.63 282.605 124.28C279.775 126.54 276.865 128.73 273.785 130.63C269.985 132.97 265.325 134.18 264.615 139.78C264.485 140.85 262.645 142 261.355 142.57C246.355 149.25 231.305 155.83 216.255 162.42C215.855 162.6 215.335 162.49 215.155 162.5C216.095 160.13 217.055 157.72 218.015 155.32C217.695 154.92 217.375 154.53 217.055 154.13C203.255 163.38 188.165 169.07 171.295 171.86C179.965 158.46 195.135 157.84 207.335 152.06C207.175 151.62 207.015 151.18 206.865 150.73C204.575 151.05 202.285 151.37 200.005 151.69C245.445 124.4 292.755 101.6 344.345 88.5298H344.335Z" fill="#F5F5DC"/>
<path d="M665.045 111.55C664.395 113.5 664.105 114.37 663.675 115.67C666.255 115.9 668.505 116.11 671.245 116.36C667.835 119.88 669.745 122.05 672.845 123.89C678.455 127.22 684.055 130.54 689.875 134C688.545 139.06 683.625 139.19 678.935 139.61C672.555 140.18 666.155 140.65 660.225 141.12C660.375 139.85 660.555 138.32 660.735 136.79C660.125 136.59 659.515 136.39 658.905 136.19C661.365 133.98 663.825 131.78 666.675 129.23C662.995 123.11 652.185 126.71 649.345 117.32C654.495 115.43 659.435 113.62 665.045 111.56V111.55Z" fill="#F5F5DC"/>
<path d="M822.415 44.3998C812.225 43.5698 802.035 42.7398 791.845 41.9098C791.725 42.3498 791.605 42.7898 791.475 43.2298C796.895 45.2298 802.315 47.2298 807.725 49.2298C802.995 50.1098 798.465 50.0098 794.405 47.0598C790.475 44.1998 786.275 43.1898 781.825 45.7398C772.135 51.2798 762.985 50.0598 753.765 44.3198C751.415 42.8598 748.005 43.1798 745.155 42.3998C743.495 41.9498 741.985 40.9398 740.685 39.2598C768.095 40.7298 795.555 36.7398 822.495 42.9998C822.465 43.4598 822.435 43.9298 822.395 44.3898L822.415 44.3998Z" fill="#F5F5DC"/>
<path d="M981.015 105.71C972.245 102.28 964.615 99.2901 956.985 96.3101C970.685 90.6201 984.305 88.7801 998.315 91.5601C1012.34 94.3501 1026.33 97.2501 1040.32 100.18C1042.35 100.61 1044.3 101.44 1045.98 103.22C1036.94 101.36 1027.97 98.8001 1018.84 97.8201C1007.16 96.5601 995.355 96.3901 983.595 96.1701C981.085 96.1201 978.545 97.8701 976.015 98.7901C977.395 100.7 978.785 102.62 981.015 105.71Z" fill="#F5F5DC"/>
<path d="M557.235 96.2499C559.385 95.7099 562.735 93.6799 564.895 94.5699C570.295 96.7799 574.855 94.5199 579.745 93.5699C585.595 92.4299 591.435 90.9999 597.345 90.4799C600.985 90.1599 604.745 91.3099 609.785 91.9799C608.005 93.5899 607.455 94.4599 606.695 94.7199C594.275 99.0099 581.795 103.13 568.355 101.55C566.865 101.38 565.505 100.18 564.075 99.4799C561.895 98.4299 559.705 97.4199 557.245 96.2499H557.235Z" fill="#F5F5DC"/>
<path d="M193.495 173.87C198.985 170.84 204.625 167.72 210.595 164.42V168.95C227.255 161.03 243.105 153.49 258.945 145.96C259.335 146.65 259.735 147.34 260.125 148.03C257.975 149.43 255.955 151.11 253.645 152.19C237.585 159.71 221.415 166.98 205.405 174.62C201.165 176.64 197.405 177.67 193.495 173.87Z" fill="#F5F5DC"/>
<path d="M74.7351 246.88C78.3951 242.06 81.9951 237.46 88.2351 235.32C94.2851 233.24 99.9651 230.06 105.725 227.2C106.785 226.68 108.145 225.41 108.195 224.44C108.415 219.59 111.735 219.08 115.435 218.06C119.935 216.83 124.165 214.64 128.355 212.94C125.415 218.01 91.9651 239.61 74.7251 246.88H74.7351Z" fill="#F5F5DC"/>
<path d="M1211.98 159.84C1197.02 155.46 1184.4 146.7 1171.2 139.02L1171.96 137.18C1179.19 139.82 1186.92 141.59 1193.51 145.33C1200.25 149.16 1205.87 154.92 1211.98 159.84Z" fill="#F5F5DC"/>
<path d="M632.625 137.55V130.7C638.585 128.6 644.805 123.12 653.155 127.21C651.345 130.03 650.195 134.03 647.725 135.17C642.995 137.37 637.515 137.95 632.355 139.2C632.445 138.65 632.535 138.1 632.625 137.55Z" fill="#F5F5DC"/>
<path d="M178.655 197.61C172.865 205.18 165.025 208.05 156.455 209.29C156.545 208.24 156.655 206.81 156.865 204.22C162.935 201.63 168.145 193.02 178.655 197.62V197.61Z" fill="#F5F5DC"/>
<path d="M1429.56 313.78C1417.67 305.58 1405.03 298.35 1395.26 287.4C1407.98 294.53 1419.15 303.66 1429.56 313.78Z" fill="#F5F5DC"/>
<path d="M137.345 205.1C146.235 199.92 155.085 194.66 164.065 189.63C165.355 188.9 167.245 189.23 168.865 189.08C168.035 190.52 167.555 192.61 166.305 193.28C162.585 195.29 158.535 196.69 154.665 198.43C151.525 199.84 148.485 201.48 145.325 202.83C142.785 203.91 140.115 204.72 137.505 205.64L137.345 205.11V205.1Z" fill="#F5F5DC"/>
<path d="M76.9149 240C73.1649 243.13 70.6149 247.15 65.5049 249.38C60.2849 251.66 56.2449 256.63 51.6649 260.4C51.1749 260.8 50.5449 261.02 49.2549 260.44C58.0149 253.05 66.7749 245.67 75.5349 238.28C75.9949 238.85 76.4449 239.42 76.9049 240H76.9149Z" fill="#F5F5DC"/>
<path d="M997.495 75.7301C991.735 73.4601 986.825 71.4101 981.815 69.6001C979.715 68.8401 977.425 68.5901 975.355 67.1001C982.525 68.1001 989.685 69.0901 997.085 70.1201C997.205 71.7801 997.295 73.1401 997.485 75.7401L997.495 75.7301Z" fill="#F5F5DC"/>
<path d="M156.795 187.94C148.125 191.95 139.455 195.96 130.785 199.97C130.455 199.21 130.115 198.45 129.785 197.69L156.015 186.1C156.275 186.71 156.535 187.32 156.795 187.94Z" fill="#F5F5DC"/>
<path d="M1235.14 175.61C1228.11 172.35 1221.09 169.08 1213.15 165.4C1223.24 164.36 1229.19 170.19 1235.14 175.61Z" fill="#F5F5DC"/>
<path d="M93.5549 225.8C94.9649 219.96 100.655 218.92 104.485 215.8C104.975 216.36 105.465 216.92 105.945 217.48C102.205 220.54 98.4649 223.61 94.7249 226.67C94.3349 226.38 93.9449 226.09 93.5549 225.8Z" fill="#F5F5DC"/>
<path d="M166.255 179.57C171.155 177.79 176.055 176.01 180.955 174.22C181.185 174.86 181.425 175.5 181.655 176.14C176.765 177.92 171.875 179.69 166.985 181.47C166.735 180.84 166.495 180.2 166.245 179.57H166.255Z" fill="#F5F5DC"/>
<path d="M176.465 186.51C180.665 184.48 184.855 182.46 189.055 180.43C189.355 181.07 189.655 181.7 189.965 182.34L177.325 188.3L176.475 186.5L176.465 186.51Z" fill="#F5F5DC"/>
<path d="M728.875 169.69C730.905 170.97 732.465 178.13 730.385 179.55C729.505 180.15 728.005 179.84 726.785 179.95C726.675 178.3 726.235 176.58 726.555 175.01C726.915 173.28 727.965 171.69 728.875 169.69Z" fill="#F5F5DC"/>
<path d="M759.095 185.86C758.635 187.33 758.315 188.38 757.855 189.85C754.555 188.65 751.515 187.54 748.475 186.43C748.495 186.24 748.525 186.05 748.545 185.86H759.085H759.095Z" fill="#F5F5DC"/>
</g>
</g>
<defs>
<clipPath id="clip0_1774_165">
<rect width="1440" height="303.5" fill="white"/>
</clipPath>
<clipPath id="clip1_1774_165">
<rect width="1719.73" height="641.98" fill="white" transform="translate(-139.865 35)"/>
</clipPath>
</defs>
</svg>
